<?xml version="1.0" encoding="UTF-8"?>
<!DOCTYPE svg PUBLIC "-//W3C//DTD SVG 1.1//EN" "http://www.w3.org/Graphics/SVG/1.1/DTD/svg11.dtd">
<svg xmlns="http://www.w3.org/2000/svg" version="1.1" width="360px" height="360px" style="shape-rendering:geometricPrecision; text-rendering:geometricPrecision; image-rendering:optimizeQuality; fill-rule:evenodd; clip-rule:evenodd" xmlns:xlink="http://www.w3.org/1999/xlink">
<g><path style="opacity:0.573" fill="#869db9" d="M 71.5,28.5 C 69.2492,27.1353 67.2492,27.4686 65.5,29.5C 65.5,27.8333 65.5,26.1667 65.5,24.5C 68.5274,23.4911 71.5274,23.4911 74.5,24.5C 73.4793,25.9014 72.4793,27.2347 71.5,28.5 Z"/></g>
<g><path style="opacity:0.692" fill="#8f9fb5" d="M 89.5,53.5 C 90.1098,54.391 90.4431,55.391 90.5,56.5C 87.7805,54.7807 85.7805,52.4474 84.5,49.5C 85.552,49.6495 86.552,49.4828 87.5,49C 89.6286,46.5608 91.6286,44.0608 93.5,41.5C 95.2726,40.6857 95.7726,39.3524 95,37.5C 92.1845,33.8407 88.6845,31.174 84.5,29.5C 81.6511,30.0864 79.3178,31.4197 77.5,33.5C 73.8109,34.2114 72.8109,36.2114 74.5,39.5C 70.3409,36.2533 66.0076,33.2533 61.5,30.5C 62.7054,29.3143 64.0387,29.3143 65.5,30.5C 66.4006,32.7271 68.0672,33.7271 70.5,33.5C 70.8333,34.8333 71.1667,34.8333 71.5,33.5C 72.1667,33.5 72.5,33.1667 72.5,32.5C 76.5644,29.1007 80.8977,26.1007 85.5,23.5C 90.4039,27.9005 95.2372,32.5672 100,37.5C 100.667,38.5 100.667,39.5 100,40.5C 95.8333,44 91.6667,47.5 87.5,51C 88.0659,51.9947 88.7326,52.828 89.5,53.5 Z"/></g>
<g><path style="opacity:0.306" fill="#859eb9" d="M 260.5,25.5 C 261.833,25.5 263.167,25.5 264.5,25.5C 264.833,28.5 263.5,29.8333 260.5,29.5C 260.5,28.1667 260.5,26.8333 260.5,25.5 Z"/></g>
<g><path style="opacity:0.971" fill="#c56e3e" d="M 71.5,28.5 C 72.2341,29.7079 72.5674,31.0413 72.5,32.5C 71.8333,32.5 71.5,32.8333 71.5,33.5C 71.1667,33.5 70.8333,33.5 70.5,33.5C 68.0672,33.7271 66.4006,32.7271 65.5,30.5C 65.5,30.1667 65.5,29.8333 65.5,29.5C 67.2492,27.4686 69.2492,27.1353 71.5,28.5 Z"/></g>
<g><path style="opacity:0.999" fill="#c66a3d" d="M 93.5,41.5 C 91.1079,33.1306 85.7746,30.4639 77.5,33.5C 79.3178,31.4197 81.6511,30.0864 84.5,29.5C 88.6845,31.174 92.1845,33.8407 95,37.5C 95.7726,39.3524 95.2726,40.6857 93.5,41.5 Z"/></g>
<g><path style="opacity:0.857" fill="#9ecce9" d="M 61.5,30.5 C 66.0076,33.2533 70.3409,36.2533 74.5,39.5C 78.1667,42.5 81.5,45.8333 84.5,49.5C 85.7805,52.4474 87.7805,54.7807 90.5,56.5C 91.7281,57.3065 92.7281,58.3065 93.5,59.5C 93.0296,60.6935 92.0296,61.3601 90.5,61.5C 86.6301,60.8984 83.2967,59.2317 80.5,56.5C 79.8165,56.8627 79.1499,57.1961 78.5,57.5C 80.2551,54.9102 79.5885,53.2435 76.5,52.5C 75.5,52.1667 74.8333,51.5 74.5,50.5C 73.139,48.4008 71.639,46.4008 70,44.5C 68.871,42.8588 67.371,41.8588 65.5,41.5C 56.5841,45.9643 49.2508,52.2977 43.5,60.5C 37.8974,62.2254 32.2307,62.8921 26.5,62.5C 36.2346,51.4489 48.2346,43.6156 62.5,39C 62.9574,38.586 63.2907,38.086 63.5,37.5C 62.0541,35.3821 61.3874,33.0488 61.5,30.5 Z"/></g>
<g><path style="opacity:0.458" fill="#e3d7c5" d="M 285.5,27.5 C 288.599,27.0923 290.933,28.259 292.5,31C 294.134,31.4935 295.801,31.6602 297.5,31.5C 297.66,33.1992 297.494,34.8659 297,36.5C 295.133,39.1025 293.633,41.9359 292.5,45C 288.533,43.1158 284.199,42.2825 279.5,42.5C 279.924,38.717 280.09,35.0503 280,31.5C 282.463,30.9678 284.297,29.6345 285.5,27.5 Z"/></g>
<g><path style="opacity:1" fill="#f5b047" d="M 286.5,30.5 C 288.764,31.5813 290.931,32.9146 293,34.5C 292.405,36.3502 291.905,38.3502 291.5,40.5C 288.102,40.8204 284.768,40.487 281.5,39.5C 282.374,37.2534 282.708,34.9201 282.5,32.5C 284.38,32.7709 285.713,32.1042 286.5,30.5 Z"/></g>
<g><path style="opacity:1" fill="#e55a2e" d="M 93.5,41.5 C 91.6286,44.0608 89.6286,46.5608 87.5,49C 86.552,49.4828 85.552,49.6495 84.5,49.5C 81.5,45.8333 78.1667,42.5 74.5,39.5C 72.8109,36.2114 73.8109,34.2114 77.5,33.5C 85.7746,30.4639 91.1079,33.1306 93.5,41.5 Z"/></g>
<g><path style="opacity:0.556" fill="#92ae73" d="M 107.5,31.5 C 108.5,31.5 109.5,31.5 110.5,31.5C 110.762,32.9778 110.429,34.3112 109.5,35.5C 107.889,34.6798 107.222,33.3464 107.5,31.5 Z"/></g>
<g><path style="opacity:0.615" fill="#6a7a95" d="M 307.5,32.5 C 311.013,33.0282 312.013,34.8615 310.5,38C 305.289,38.5464 304.289,36.713 307.5,32.5 Z"/></g>
<g><path style="opacity:0.987" fill="#89bdd5" d="M 241.5,36.5 C 239.046,40.7889 235.712,44.2889 231.5,47C 226.478,48.9499 221.478,50.7832 216.5,52.5C 221.724,56.787 221.724,61.287 216.5,66C 210.959,67.685 206.126,70.5183 202,74.5C 201.517,75.448 201.351,76.448 201.5,77.5C 198.6,70.5704 197.767,63.237 199,55.5C 200.537,51.7713 202.037,48.1046 203.5,44.5C 204.167,43.1667 205.167,42.1667 206.5,41.5C 206.5,42.1667 206.5,42.8333 206.5,43.5C 206.5,45.1667 206.5,46.8333 206.5,48.5C 209.326,48.0023 211.66,46.6689 213.5,44.5C 216.407,42.6855 217.741,40.0188 217.5,36.5C 219.751,35.9851 221.751,34.9851 223.5,33.5C 229.919,32.3476 235.919,33.3476 241.5,36.5 Z"/></g>
<g><path style="opacity:0.2" fill="#d9dcd0" d="M 223.5,33.5 C 221.751,34.9851 219.751,35.9851 217.5,36.5C 213.623,37.7115 209.957,39.3781 206.5,41.5C 210.8,36.1663 216.467,33.4996 223.5,33.5 Z"/></g>
<g><path style="opacity:0.536" fill="#859db9" d="M 122.5,36.5 C 124.544,37.0312 126.211,38.1978 127.5,40C 125.963,41.1096 125.297,42.6096 125.5,44.5C 123.143,44.6633 120.81,44.4966 118.5,44C 119.343,42.2134 119.51,40.3801 119,38.5C 120,37.1667 121,37.1667 122,38.5C 122.464,37.9056 122.631,37.2389 122.5,36.5 Z"/></g>
<g><path style="opacity:1" fill="#a9d370" d="M 217.5,36.5 C 217.741,40.0188 216.407,42.6855 213.5,44.5C 211.122,43.9063 208.789,43.573 206.5,43.5C 206.5,42.8333 206.5,42.1667 206.5,41.5C 209.957,39.3781 213.623,37.7115 217.5,36.5 Z"/></g>
<g><path style="opacity:1" fill="#a7d26a" d="M 241.5,36.5 C 243.38,36.2291 244.713,36.8958 245.5,38.5C 245.678,39.6948 246.011,40.8615 246.5,42C 244.179,47.4927 241.345,52.6593 238,57.5C 237.045,62.4232 238.879,65.9232 243.5,68C 246.221,68.6015 248.887,68.4349 251.5,67.5C 252.376,67.3691 253.043,67.7025 253.5,68.5C 252.301,71.9439 250.634,75.1105 248.5,78C 245.183,78.4983 241.85,78.665 238.5,78.5C 236.833,78.5 235.167,78.5 233.5,78.5C 227.219,77.7721 224.219,80.4388 224.5,86.5C 218.804,86.553 213.138,86.2197 207.5,85.5C 205.025,83.2297 203.025,80.563 201.5,77.5C 201.351,76.448 201.517,75.448 202,74.5C 206.126,70.5183 210.959,67.685 216.5,66C 221.724,61.287 221.724,56.787 216.5,52.5C 221.478,50.7832 226.478,48.9499 231.5,47C 235.712,44.2889 239.046,40.7889 241.5,36.5 Z"/></g>
<g><path style="opacity:0.753" fill="#859eba" d="M 250.5,42.5 C 257.046,48.2652 260.379,55.5986 260.5,64.5C 260.167,64.5 259.833,64.5 259.5,64.5C 258.5,64.5 257.5,64.5 256.5,64.5C 255.51,57.1646 253.177,50.1646 249.5,43.5C 249.624,42.8933 249.957,42.56 250.5,42.5 Z"/></g>
<g><path style="opacity:1" fill="#e25c2f" d="M 65.5,42.5 C 68.3489,43.9196 69.0156,45.9196 67.5,48.5C 61.1677,51.652 55.501,55.8186 50.5,61C 49.2068,61.49 47.8734,61.6567 46.5,61.5C 45.4265,60.7494 45.2599,59.7494 46,58.5C 52.071,52.5608 58.571,47.2275 65.5,42.5 Z"/></g>
<g><path style="opacity:0.792" fill="#657793" d="M 199.5,43.5 C 199.389,44.1174 199.056,44.6174 198.5,45C 188.172,45.4998 177.839,45.6665 167.5,45.5C 177.954,43.857 188.621,43.1904 199.5,43.5 Z"/></g>
<g><path style="opacity:0.985" fill="#3d4762" d="M 199.5,43.5 C 200.833,43.8333 202.167,44.1667 203.5,44.5C 202.037,48.1046 200.537,51.7713 199,55.5C 197.767,63.237 198.6,70.5704 201.5,77.5C 203.025,80.563 205.025,83.2297 207.5,85.5C 207.833,86.5 208.5,87.1667 209.5,87.5C 213.808,91.1522 218.808,93.4856 224.5,94.5C 227.059,94.8016 229.393,94.4682 231.5,93.5C 242.042,92.7394 249.709,87.7394 254.5,78.5C 257.654,74.4551 259.321,69.7885 259.5,64.5C 259.833,64.5 260.167,64.5 260.5,64.5C 267.42,68.4265 273.753,73.0932 279.5,78.5C 279.833,79.1667 280.167,79.8333 280.5,80.5C 279.833,81.5 279.167,82.5 278.5,83.5C 272.412,89.4209 270.412,96.4209 272.5,104.5C 277.952,121.572 289.286,127.239 306.5,121.5C 308.292,121.366 309.958,121.699 311.5,122.5C 314.169,128.504 316.836,134.504 319.5,140.5C 319.263,141.791 319.596,142.791 320.5,143.5C 320.5,144.167 320.833,144.5 321.5,144.5C 323.901,151.372 325.901,158.372 327.5,165.5C 324.833,166.167 322.167,166.833 319.5,167.5C 310.127,169.194 301.46,172.527 293.5,177.5C 288.68,179.074 284.347,181.407 280.5,184.5C 268.998,183.752 259.998,188.085 253.5,197.5C 252.5,197.833 251.833,198.5 251.5,199.5C 248.19,201.482 245.19,203.815 242.5,206.5C 237.848,209.821 233.515,213.487 229.5,217.5C 225.788,220.211 222.788,223.544 220.5,227.5C 217.839,229.68 216.172,232.514 215.5,236C 215.643,238.151 216.643,239.818 218.5,241C 224.935,241.515 231.269,240.848 237.5,239C 243.188,236.82 248.854,234.653 254.5,232.5C 255.609,232.557 256.609,232.89 257.5,233.5C 258.167,234.833 259.167,235.833 260.5,236.5C 270.39,242.767 280.39,243.101 290.5,237.5C 299.854,233.132 305.52,225.799 307.5,215.5C 307.909,210.308 307.242,205.308 305.5,200.5C 314.652,193.35 321.985,184.684 327.5,174.5C 328.167,176.5 328.833,178.5 329.5,180.5C 330.204,212.747 319.537,240.414 297.5,263.5C 296.391,263.557 295.391,263.89 294.5,264.5C 274.941,254.939 258.941,258.939 246.5,276.5C 239.847,278.823 233.847,282.156 228.5,286.5C 226.596,286.738 225.262,287.738 224.5,289.5C 218.167,292.5 213.5,297.167 210.5,303.5C 209.833,304.833 209.167,306.167 208.5,307.5C 174.595,315.002 140.929,314.002 107.5,304.5C 107.5,303.833 107.5,303.167 107.5,302.5C 123.801,288.465 128.301,271.131 121,250.5C 119.97,248.654 118.804,246.987 117.5,245.5C 115.967,241.296 113.3,237.963 109.5,235.5C 97.8506,225.059 84.1839,221.226 68.5,224C 62.8806,225.476 57.8806,227.976 53.5,231.5C 51.2512,232.08 49.5846,233.413 48.5,235.5C 43.3974,239.039 39.7307,243.705 37.5,249.5C 37.0679,250.71 36.4013,251.71 35.5,252.5C 35.5,251.833 35.1667,251.5 34.5,251.5C 31.069,241.44 28.7356,231.107 27.5,220.5C 27.1684,205.444 27.8351,190.444 29.5,175.5C 37.0462,140.237 54.0462,110.403 80.5,86C 94.3539,75.1546 109.021,65.4879 124.5,57C 138.178,50.6054 152.512,46.7721 167.5,45.5C 177.839,45.6665 188.172,45.4998 198.5,45C 199.056,44.6174 199.389,44.1174 199.5,43.5 Z M 219.5,114.5 C 224.044,114.459 228.044,115.792 231.5,118.5C 227.233,117.744 223.233,116.411 219.5,114.5 Z M 185.5,129.5 C 183.286,135.617 182.12,141.951 182,148.5C 181.329,149.252 180.496,149.586 179.5,149.5C 179.485,145.44 179.985,141.44 181,137.5C 181.754,134.316 183.254,131.649 185.5,129.5 Z M 247.5,162.5 C 248.167,162.5 248.833,162.5 249.5,162.5C 248.71,163.401 247.71,164.068 246.5,164.5C 246.328,163.508 246.662,162.842 247.5,162.5 Z M 173.5,204.5 C 172.22,205.931 170.553,206.598 168.5,206.5C 169.78,205.069 171.447,204.402 173.5,204.5 Z M 162.5,208.5 C 161.737,209.268 160.737,209.768 159.5,210C 154.623,210.894 152.956,210.728 154.5,209.5C 157.167,209.167 159.833,208.833 162.5,208.5 Z"/></g>
<g><path style="opacity:1" fill="#d3dbcb" d="M 206.5,43.5 C 208.789,43.573 211.122,43.9063 213.5,44.5C 211.66,46.6689 209.326,48.0023 206.5,48.5C 206.5,46.8333 206.5,45.1667 206.5,43.5 Z"/></g>
<g><path style="opacity:1" fill="#92c1d3" d="M 245.5,38.5 C 247.749,39.0798 249.415,40.4131 250.5,42.5C 249.957,42.56 249.624,42.8933 249.5,43.5C 253.177,50.1646 255.51,57.1646 256.5,64.5C 254.712,65.3604 253.045,66.3604 251.5,67.5C 248.887,68.4349 246.221,68.6015 243.5,68C 238.879,65.9232 237.045,62.4232 238,57.5C 241.345,52.6593 244.179,47.4927 246.5,42C 246.011,40.8615 245.678,39.6948 245.5,38.5 Z"/></g>
<g><path style="opacity:0.467" fill="#8fae70" d="M 307.5,44.5 C 308.5,44.5 309.5,44.5 310.5,44.5C 310.5,45.5 310.5,46.5 310.5,47.5C 309.5,47.5 308.5,47.5 307.5,47.5C 307.5,46.5 307.5,45.5 307.5,44.5 Z"/></g>
<g><path style="opacity:0.614" fill="#869cb7" d="M 96.5,57.5 C 95.5589,55.2279 94.2255,53.2279 92.5,51.5C 94.3634,49.2947 96.6967,47.9613 99.5,47.5C 99.6025,50.2186 99.2692,52.8853 98.5,55.5C 98.2528,56.7133 97.5862,57.38 96.5,57.5 Z"/></g>
<g><path style="opacity:0.996" fill="#75686f" d="M 65.5,42.5 C 65.5,42.1667 65.5,41.8333 65.5,41.5C 67.371,41.8588 68.871,42.8588 70,44.5C 71.639,46.4008 73.139,48.4008 74.5,50.5C 72.3453,50.372 70.3453,50.872 68.5,52C 63.1667,56.6667 57.8333,61.3333 52.5,66C 51.2506,66.7401 50.2506,66.5735 49.5,65.5C 55.8957,61.2828 61.8957,56.4495 67.5,51C 67.2716,50.6012 66.9382,50.4346 66.5,50.5C 66.8333,49.8333 67.1667,49.1667 67.5,48.5C 69.0156,45.9196 68.3489,43.9196 65.5,42.5 Z"/></g>
<g><path style="opacity:0.973" fill="#c86936" d="M 92.5,51.5 C 94.2255,53.2279 95.5589,55.2279 96.5,57.5C 95.7095,58.4013 94.7095,59.0679 93.5,59.5C 92.7281,58.3065 91.7281,57.3065 90.5,56.5C 90.4431,55.391 90.1098,54.391 89.5,53.5C 90.2905,52.5987 91.2905,51.9321 92.5,51.5 Z"/></g>
<g><path style="opacity:0.669" fill="#697a95" d="M 268.5,53.5 C 273.493,53.997 274.493,56.1637 271.5,60C 268.696,60.971 266.696,60.1376 265.5,57.5C 265.787,55.5567 266.787,54.2233 268.5,53.5 Z"/></g>
<g><path style="opacity:0.903" fill="#90c3d9" d="M 298.5,58.5 C 297.846,64.3471 294.512,66.5138 288.5,65C 287.601,63.3484 286.601,61.8484 285.5,60.5C 285.624,58.4184 286.624,56.9184 288.5,56C 291.167,55.3333 293.833,55.3333 296.5,56C 297.381,56.7083 298.047,57.5416 298.5,58.5 Z"/></g>
<g><path style="opacity:0.976" fill="#7fa5bc" d="M 76.5,52.5 C 79.5885,53.2435 80.2551,54.9102 78.5,57.5C 77.5,57.8333 76.8333,58.5 76.5,59.5C 70.7805,62.3806 66.1138,66.5473 62.5,72C 61.5165,72.5908 60.8499,72.2575 60.5,71C 61.1007,69.395 62.1007,68.0616 63.5,67C 63.1667,66.8333 62.8333,66.6667 62.5,66.5C 60.4084,68.6049 58.0751,70.2716 55.5,71.5C 55.5,71.1667 55.5,70.8333 55.5,70.5C 61.7192,64.7838 68.3859,59.6171 75.5,55C 76.2524,54.3292 76.5858,53.4959 76.5,52.5 Z"/></g>
<g><path style="opacity:1" fill="#f99f57" d="M 141.5,59.5 C 135.401,58.8131 134.901,60.1465 140,63.5C 143.925,70.3547 143.092,76.5214 137.5,82C 140.462,82.0901 142.796,80.7568 144.5,78C 146.134,77.5065 147.801,77.3398 149.5,77.5C 149.662,79.5273 149.495,81.5273 149,83.5C 146.029,87.7454 144.029,92.412 143,97.5C 141.429,99.9229 139.263,101.256 136.5,101.5C 136.38,99.2655 136.713,97.0989 137.5,95C 136.553,91.9277 134.553,90.9277 131.5,92C 130.613,97.272 127.613,99.272 122.5,98C 119.134,100.93 118.801,104.097 121.5,107.5C 117.941,110.403 114.941,113.903 112.5,118C 108.901,119.014 105.235,119.847 101.5,120.5C 98.7622,123.309 97.0956,126.642 96.5,130.5C 93.7569,130.923 92.4235,129.756 92.5,127C 93.2755,124.178 93.9421,121.344 94.5,118.5C 92.8561,118.286 91.3561,118.62 90,119.5C 90.6335,125.899 88.3002,130.899 83,134.5C 83.0936,139.646 81.0936,143.646 77,146.5C 77.2532,149.133 77.2532,151.8 77,154.5C 73.7774,155.723 72.1107,158.056 72,161.5C 68.3351,165.508 65.1684,169.841 62.5,174.5C 61.9569,174.56 61.6236,174.893 61.5,175.5C 62.723,176.614 64.0563,176.781 65.5,176C 69.7789,174.527 73.7789,172.527 77.5,170C 107.941,145.819 136.774,119.653 164,91.5C 166.157,89.1829 167.657,86.5162 168.5,83.5C 168.5,82.8333 168.833,82.5 169.5,82.5C 170.622,84.2884 170.789,86.2884 170,88.5C 168.338,91.6493 166.505,94.6493 164.5,97.5C 143.351,116.926 122.351,136.592 101.5,156.5C 88.8964,167.144 75.2298,176.31 60.5,184C 58.5273,184.495 56.5273,184.662 54.5,184.5C 54.5986,176.188 58.0986,169.521 65,164.5C 63.6737,153.819 68.007,146.486 78,142.5C 78.7796,140.613 78.6129,138.946 77.5,137.5C 74.6067,134.062 73.7734,130.062 75,125.5C 74.9366,121.558 76.6032,118.558 80,116.5C 80.4828,117.448 80.6495,118.448 80.5,119.5C 83.3456,119.97 85.6789,119.137 87.5,117C 86.1667,116.333 84.8333,115.667 83.5,115C 85.7538,113.623 87.9205,112.123 90,110.5C 92.5116,106.81 94.5116,102.81 96,98.5C 98.3255,95.9892 101.159,94.6559 104.5,94.5C 104.679,96.9541 104.013,99.1208 102.5,101C 102.833,101.5 103.167,102 103.5,102.5C 111.105,97.0645 118.272,91.0645 125,84.5C 125.617,83.5509 125.451,82.7175 124.5,82C 122.473,81.5022 120.473,81.6689 118.5,82.5C 114.657,80.7048 114.657,78.5381 118.5,76C 121.533,74.8224 124.199,73.1558 126.5,71C 124.424,69.7562 123.424,67.9229 123.5,65.5C 128.496,60.0566 134.496,58.0566 141.5,59.5 Z"/></g>
<g><path style="opacity:1" fill="#f2813b" d="M 141.5,59.5 C 145.024,59.9289 148.024,61.4289 150.5,64C 153.254,64.2724 155.921,64.7724 158.5,65.5C 157.251,67.6704 156.251,70.0037 155.5,72.5C 156.073,75.0853 157.739,76.0853 160.5,75.5C 158.833,78.8333 157.167,82.1667 155.5,85.5C 158.718,84.8118 161.884,83.8118 165,82.5C 166.07,82.528 166.903,82.8614 167.5,83.5C 163.473,86.8604 159.806,90.5271 156.5,94.5C 153.243,95.4617 150.243,96.9617 147.5,99C 129.48,112.345 112.647,127.179 97,143.5C 93.5335,147.12 90.7001,151.12 88.5,155.5C 80.5515,162.808 71.8848,169.142 62.5,174.5C 65.1684,169.841 68.3351,165.508 72,161.5C 72.1107,158.056 73.7774,155.723 77,154.5C 77.2532,151.8 77.2532,149.133 77,146.5C 81.0936,143.646 83.0936,139.646 83,134.5C 88.3002,130.899 90.6335,125.899 90,119.5C 91.3561,118.62 92.8561,118.286 94.5,118.5C 93.9421,121.344 93.2755,124.178 92.5,127C 92.4235,129.756 93.7569,130.923 96.5,130.5C 97.0956,126.642 98.7622,123.309 101.5,120.5C 105.235,119.847 108.901,119.014 112.5,118C 114.941,113.903 117.941,110.403 121.5,107.5C 118.801,104.097 119.134,100.93 122.5,98C 127.613,99.272 130.613,97.272 131.5,92C 134.553,90.9277 136.553,91.9277 137.5,95C 136.713,97.0989 136.38,99.2655 136.5,101.5C 139.263,101.256 141.429,99.9229 143,97.5C 144.029,92.412 146.029,87.7454 149,83.5C 149.495,81.5273 149.662,79.5273 149.5,77.5C 147.801,77.3398 146.134,77.5065 144.5,78C 142.796,80.7568 140.462,82.0901 137.5,82C 143.092,76.5214 143.925,70.3547 140,63.5C 134.901,60.1465 135.401,58.8131 141.5,59.5 Z"/></g>
<g><path style="opacity:0.644" fill="#859fba" d="M 298.5,58.5 C 301.453,64.6002 299.453,68.6002 292.5,70.5C 286.831,69.207 284.497,65.8736 285.5,60.5C 286.601,61.8484 287.601,63.3484 288.5,65C 294.512,66.5138 297.846,64.3471 298.5,58.5 Z"/></g>
<g><path style="opacity:0.783" fill="#9dcded" d="M 76.5,59.5 C 70.5098,66.799 65.5098,74.799 61.5,83.5C 60.675,84.3857 59.675,84.719 58.5,84.5C 57.6745,80.8641 57.0078,77.1974 56.5,73.5C 56.1667,72.8333 55.8333,72.1667 55.5,71.5C 58.0751,70.2716 60.4084,68.6049 62.5,66.5C 62.8333,66.6667 63.1667,66.8333 63.5,67C 62.1007,68.0616 61.1007,69.395 60.5,71C 60.8499,72.2575 61.5165,72.5908 62.5,72C 66.1138,66.5473 70.7805,62.3806 76.5,59.5 Z"/></g>
<g><path style="opacity:1" fill="#82b7d0" d="M 182.5,58.5 C 184.628,60.4458 186.961,62.2791 189.5,64C 187.306,65.5528 186.14,67.7195 186,70.5C 184.175,69.8971 182.341,69.2304 180.5,68.5C 181.953,66.3561 181.62,64.5227 179.5,63C 180.448,62.5172 181.448,62.3505 182.5,62.5C 182.5,61.1667 182.5,59.8333 182.5,58.5 Z"/></g>
<g><path style="opacity:0.501" fill="#859eb9" d="M 311.5,60.5 C 312.5,60.5 313.5,60.5 314.5,60.5C 314.626,62.1998 315.293,63.6998 316.5,65C 315.852,66.4397 315.519,67.9397 315.5,69.5C 313.167,68.1667 310.833,68.1667 308.5,69.5C 308.33,68.1779 308.663,67.0113 309.5,66C 308.643,65.3109 307.977,64.4776 307.5,63.5C 309.332,62.9432 310.665,61.9432 311.5,60.5 Z"/></g>
<g><path style="opacity:1" fill="#8cae71" d="M 256.5,64.5 C 257.5,64.5 258.5,64.5 259.5,64.5C 259.321,69.7885 257.654,74.4551 254.5,78.5C 249.203,79.2745 243.87,79.6079 238.5,79.5C 238.5,79.1667 238.5,78.8333 238.5,78.5C 241.85,78.665 245.183,78.4983 248.5,78C 250.634,75.1105 252.301,71.9439 253.5,68.5C 253.043,67.7025 252.376,67.3691 251.5,67.5C 253.045,66.3604 254.712,65.3604 256.5,64.5 Z"/></g>
<g><path style="opacity:1" fill="#de6e36" d="M 67.5,48.5 C 67.1667,49.1667 66.8333,49.8333 66.5,50.5C 59.9375,54.3904 54.2708,59.3904 49.5,65.5C 50.2506,66.5735 51.2506,66.7401 52.5,66C 57.8333,61.3333 63.1667,56.6667 68.5,52C 70.3453,50.872 72.3453,50.372 74.5,50.5C 74.8333,51.5 75.5,52.1667 76.5,52.5C 76.5858,53.4959 76.2524,54.3292 75.5,55C 68.3859,59.6171 61.7192,64.7838 55.5,70.5C 54.1667,70.5 52.8333,70.5 51.5,70.5C 49.9826,70.4894 48.8159,69.8228 48,68.5C 47.8091,66.2922 47.3091,64.2922 46.5,62.5C 46.5,62.1667 46.5,61.8333 46.5,61.5C 47.8734,61.6567 49.2068,61.49 50.5,61C 55.501,55.8186 61.1677,51.652 67.5,48.5 Z"/></g>
<g><path style="opacity:0.996" fill="#b8ada7" d="M 66.5,50.5 C 66.9382,50.4346 67.2716,50.6012 67.5,51C 61.8957,56.4495 55.8957,61.2828 49.5,65.5C 54.2708,59.3904 59.9375,54.3904 66.5,50.5 Z"/></g>
<g><path style="opacity:1" fill="#fbb141" d="M 46.5,62.5 C 47.3091,64.2922 47.8091,66.2922 48,68.5C 48.8159,69.8228 49.9826,70.4894 51.5,70.5C 50.7848,76.1509 48.6181,81.1509 45,85.5C 42.8788,83.5426 40.3788,83.0426 37.5,84C 34.5932,85.6091 31.9266,87.4424 29.5,89.5C 28.1667,89.5 26.8333,89.5 25.5,89.5C 25.5,88.5 25.5,87.5 25.5,86.5C 26.5804,84.0038 27.9138,81.6705 29.5,79.5C 30.4793,78.2347 31.4793,76.9014 32.5,75.5C 31.1886,74.7425 30.6886,73.7425 31,72.5C 33.1337,69.8474 35.6337,67.8474 38.5,66.5C 40.2922,65.6909 42.2922,65.1909 44.5,65C 45.756,64.5831 46.4226,63.7498 46.5,62.5 Z"/></g>
<g><path style="opacity:1" fill="#c76732" d="M 158.5,65.5 C 160.772,67.0181 162.105,69.1848 162.5,72C 164.676,72.1629 166.509,72.9963 168,74.5C 168.272,77.2538 168.772,79.9205 169.5,82.5C 168.833,82.5 168.5,82.8333 168.5,83.5C 168.167,83.5 167.833,83.5 167.5,83.5C 166.903,82.8614 166.07,82.528 165,82.5C 161.884,83.8118 158.718,84.8118 155.5,85.5C 157.167,82.1667 158.833,78.8333 160.5,75.5C 157.739,76.0853 156.073,75.0853 155.5,72.5C 156.251,70.0037 157.251,67.6704 158.5,65.5 Z"/></g>
<g><path style="opacity:1" fill="#f6af75" d="M 123.5,65.5 C 123.424,67.9229 124.424,69.7562 126.5,71C 124.199,73.1558 121.533,74.8224 118.5,76C 114.657,78.5381 114.657,80.7048 118.5,82.5C 120.473,81.6689 122.473,81.5022 124.5,82C 125.451,82.7175 125.617,83.5509 125,84.5C 118.272,91.0645 111.105,97.0645 103.5,102.5C 103.167,102 102.833,101.5 102.5,101C 104.013,99.1208 104.679,96.9541 104.5,94.5C 101.159,94.6559 98.3255,95.9892 96,98.5C 94.5116,102.81 92.5116,106.81 90,110.5C 87.9205,112.123 85.7538,113.623 83.5,115C 84.8333,115.667 86.1667,116.333 87.5,117C 85.6789,119.137 83.3456,119.97 80.5,119.5C 80.6495,118.448 80.4828,117.448 80,116.5C 76.6032,118.558 74.9366,121.558 75,125.5C 73.7734,130.062 74.6067,134.062 77.5,137.5C 73.5451,135.936 71.8785,132.936 72.5,128.5C 73.2177,118.274 78.3843,111.274 88,107.5C 89.0242,96.5992 94.1908,88.4325 103.5,83C 108.181,74.8145 114.847,68.9812 123.5,65.5 Z"/></g>
<g><path style="opacity:0.386" fill="#e4d7c5" d="M 311.5,122.5 C 309.958,121.699 308.292,121.366 306.5,121.5C 318.299,114.575 322.299,104.575 318.5,91.5C 316.245,82.7506 310.578,77.5839 301.5,76C 297.833,75.3333 294.167,75.3333 290.5,76C 286.996,77.2545 283.663,78.7545 280.5,80.5C 280.167,79.8333 279.833,79.1667 279.5,78.5C 299.325,68.4858 313.825,73.4858 323,93.5C 324.456,101.045 323.123,108.045 319,114.5C 316.295,117.036 313.795,119.703 311.5,122.5 Z"/></g>
<g><path style="opacity:0.996" fill="#fabc7f" d="M 38.5,66.5 C 35.6337,67.8474 33.1337,69.8474 31,72.5C 30.6886,73.7425 31.1886,74.7425 32.5,75.5C 31.4793,76.9014 30.4793,78.2347 29.5,79.5C 29.5198,77.857 28.8532,76.5237 27.5,75.5C 29.7479,70.5695 33.4146,67.5695 38.5,66.5 Z"/></g>
<g><path style="opacity:0.451" fill="#849db9" d="M 70.5,77.5 C 72.7159,77.2746 74.3826,78.1079 75.5,80C 74.0696,81.4404 72.403,81.7737 70.5,81C 69.3157,79.8545 69.3157,78.6879 70.5,77.5 Z"/></g>
<g><path style="opacity:1" fill="#faa259" d="M 318.5,91.5 C 308.44,100.673 297.44,101.84 285.5,95C 282.577,92.5838 280.243,89.7504 278.5,86.5C 278.5,85.5 278.5,84.5 278.5,83.5C 279.167,82.5 279.833,81.5 280.5,80.5C 283.663,78.7545 286.996,77.2545 290.5,76C 294.167,75.3333 297.833,75.3333 301.5,76C 310.578,77.5839 316.245,82.7506 318.5,91.5 Z"/></g>
<g><path style="opacity:1" fill="#849eb7" d="M 233.5,78.5 C 230.851,80.14 228.184,81.8067 225.5,83.5C 227.026,85.3871 229.026,86.3871 231.5,86.5C 236.372,86.2096 240.706,84.543 244.5,81.5C 242.369,80.8313 240.369,80.1646 238.5,79.5C 243.87,79.6079 249.203,79.2745 254.5,78.5C 249.709,87.7394 242.042,92.7394 231.5,93.5C 229.824,90.4567 227.491,88.1233 224.5,86.5C 224.219,80.4388 227.219,77.7721 233.5,78.5 Z"/></g>
<g><path style="opacity:1" fill="#89bfd7" d="M 233.5,78.5 C 235.167,78.5 236.833,78.5 238.5,78.5C 238.5,78.8333 238.5,79.1667 238.5,79.5C 240.369,80.1646 242.369,80.8313 244.5,81.5C 240.706,84.543 236.372,86.2096 231.5,86.5C 229.026,86.3871 227.026,85.3871 225.5,83.5C 228.184,81.8067 230.851,80.14 233.5,78.5 Z"/></g>
<g><path style="opacity:0.433" fill="#6f839f" d="M 66.5,82.5 C 73.1236,82.3672 74.1236,84.7005 69.5,89.5C 66.4671,87.8326 65.4671,85.4992 66.5,82.5 Z"/></g>
<g><path style="opacity:0.996" fill="#b68f6f" d="M 278.5,83.5 C 278.5,84.5 278.5,85.5 278.5,86.5C 273.71,91.4463 271.71,97.4463 272.5,104.5C 270.412,96.4209 272.412,89.4209 278.5,83.5 Z"/></g>
<g><path style="opacity:1" fill="#8bad72" d="M 207.5,85.5 C 213.138,86.2197 218.804,86.553 224.5,86.5C 227.491,88.1233 229.824,90.4567 231.5,93.5C 229.393,94.4682 227.059,94.8016 224.5,94.5C 224.141,92.629 223.141,91.129 221.5,90C 217.595,88.6409 213.595,87.8076 209.5,87.5C 208.5,87.1667 207.833,86.5 207.5,85.5 Z"/></g>
<g><path style="opacity:1" fill="#f1823d" d="M 278.5,86.5 C 280.243,89.7504 282.577,92.5838 285.5,95C 297.44,101.84 308.44,100.673 318.5,91.5C 322.299,104.575 318.299,114.575 306.5,121.5C 289.286,127.239 277.952,121.572 272.5,104.5C 271.71,97.4463 273.71,91.4463 278.5,86.5 Z"/></g>
<g><path style="opacity:1" fill="#7f97af" d="M 209.5,87.5 C 213.595,87.8076 217.595,88.6409 221.5,90C 223.141,91.129 224.141,92.629 224.5,94.5C 218.808,93.4856 213.808,91.1522 209.5,87.5 Z"/></g>
<g><path style="opacity:0.493" fill="#e6d9c9" d="M 65.5,41.5 C 65.5,41.8333 65.5,42.1667 65.5,42.5C 58.571,47.2275 52.071,52.5608 46,58.5C 45.2599,59.7494 45.4265,60.7494 46.5,61.5C 46.5,61.8333 46.5,62.1667 46.5,62.5C 46.4226,63.7498 45.756,64.5831 44.5,65C 42.2922,65.1909 40.2922,65.6909 38.5,66.5C 33.4146,67.5695 29.7479,70.5695 27.5,75.5C 28.8532,76.5237 29.5198,77.857 29.5,79.5C 27.9138,81.6705 26.5804,84.0038 25.5,86.5C 24.1359,88.22 23.1359,90.22 22.5,92.5C 23.365,93.5827 24.365,93.7494 25.5,93C 26.7305,91.5952 28.0639,90.4286 29.5,89.5C 31.9266,87.4424 34.5932,85.6091 37.5,84C 40.3788,83.0426 42.8788,83.5426 45,85.5C 48.6181,81.1509 50.7848,76.1509 51.5,70.5C 52.8333,70.5 54.1667,70.5 55.5,70.5C 55.5,70.8333 55.5,71.1667 55.5,71.5C 55.8333,72.1667 56.1667,72.8333 56.5,73.5C 55.5,73.5 54.5,73.5 53.5,73.5C 52.2818,84.5711 46.2818,89.4044 35.5,88C 18.4601,102.805 15.4601,99.9716 26.5,79.5C 25.5775,74.3187 27.2442,69.9853 31.5,66.5C 34.9399,64.6312 38.6066,63.4645 42.5,63C 43.2524,62.3292 43.5858,61.4959 43.5,60.5C 49.2508,52.2977 56.5841,45.9643 65.5,41.5 Z"/></g>
<g><path style="opacity:0.996" fill="#f9b87f" d="M 25.5,86.5 C 25.5,87.5 25.5,88.5 25.5,89.5C 26.8333,89.5 28.1667,89.5 29.5,89.5C 28.0639,90.4286 26.7305,91.5952 25.5,93C 24.365,93.7494 23.365,93.5827 22.5,92.5C 23.1359,90.22 24.1359,88.22 25.5,86.5 Z"/></g>
<g><path style="opacity:1" fill="#faaf74" d="M 156.5,94.5 C 137.635,113.866 117.968,132.366 97.5,150C 94.7777,152.358 91.7777,154.191 88.5,155.5C 90.7001,151.12 93.5335,147.12 97,143.5C 112.647,127.179 129.48,112.345 147.5,99C 150.243,96.9617 153.243,95.4617 156.5,94.5 Z"/></g>
<g><path style="opacity:1" fill="#c86832" d="M 164.5,97.5 C 167.054,103.774 166.887,110.107 164,116.5C 158.654,129.181 149.488,137.681 136.5,142C 130.933,149.957 123.266,154.624 113.5,156C 109.514,156.499 105.514,156.666 101.5,156.5C 122.351,136.592 143.351,116.926 164.5,97.5 Z"/></g>
<g><path style="opacity:1" fill="#c6c6c5" d="M 238.5,99.5 C 239.833,99.5 241.167,99.5 242.5,99.5C 242.616,102.91 240.95,104.244 237.5,103.5C 237.433,102.041 237.766,100.708 238.5,99.5 Z"/></g>
<g><path style="opacity:0.525" fill="#e4dccd" d="M 36.5,95.5 C 37.552,95.3505 38.552,95.5172 39.5,96C 41.7436,98.1743 44.0769,100.174 46.5,102C 45.4067,104.443 44.4067,106.943 43.5,109.5C 40.1898,110.349 36.8564,110.182 33.5,109C 31.8399,106.367 31.3399,103.534 32,100.5C 33.7073,98.9625 35.2073,97.2959 36.5,95.5 Z"/></g>
<g><path style="opacity:1" fill="#f2b04c" d="M 37.5,97.5 C 39.1042,98.287 39.7709,99.6203 39.5,101.5C 40.9778,101.238 42.3112,101.571 43.5,102.5C 42.0927,106.915 39.0927,108.582 34.5,107.5C 34.3379,105.473 34.5045,103.473 35,101.5C 36.4813,100.529 37.3146,99.1958 37.5,97.5 Z"/></g>
<g><path style="opacity:1" fill="#eadac8" d="M 279.5,102.5 C 282.631,101.908 284.964,102.908 286.5,105.5C 286.278,108.076 284.945,108.91 282.5,108C 280.393,106.736 279.393,104.903 279.5,102.5 Z"/></g>
<g><path style="opacity:0.692" fill="#8dae70" d="M 48.5,104.5 C 49.8333,104.5 51.1667,104.5 52.5,104.5C 52.5,105.833 52.5,107.167 52.5,108.5C 51.1667,108.5 49.8333,108.5 48.5,108.5C 48.5,107.167 48.5,105.833 48.5,104.5 Z"/></g>
<g><path style="opacity:1" fill="#f07f39" d="M 158.5,107.5 C 160.635,107.147 161.968,107.98 162.5,110C 158.919,119.456 153.585,127.79 146.5,135C 141.536,136.359 136.536,137.526 131.5,138.5C 129.418,142.747 126.751,146.581 123.5,150C 119.868,150.945 116.368,152.112 113,153.5C 112.167,153.167 111.333,152.833 110.5,152.5C 115.318,147.181 120.318,142.015 125.5,137C 131.252,134.289 136.918,131.289 142.5,128C 148.812,121.864 154.145,115.03 158.5,107.5 Z"/></g>
<g><path style="opacity:1" fill="#f4b048" d="M 197.5,107.5 C 198.146,109.156 198.813,110.823 199.5,112.5C 198.908,114.423 197.908,116.089 196.5,117.5C 195.167,117.833 193.833,118.167 192.5,118.5C 190.983,118.489 189.816,117.823 189,116.5C 186.724,108.278 189.558,105.278 197.5,107.5 Z"/></g>
<g><path style="opacity:1" fill="#f9af74" d="M 279.5,102.5 C 279.393,104.903 280.393,106.736 282.5,108C 284.945,108.91 286.278,108.076 286.5,105.5C 287.801,106.884 287.801,108.384 286.5,110C 281.608,111.69 278.608,110.023 277.5,105C 277.639,103.699 278.305,102.866 279.5,102.5 Z"/></g>
<g><path style="opacity:0.984" fill="#e6e0d4" d="M 217.5,113.5 C 217.842,114.338 218.508,114.672 219.5,114.5C 223.233,116.411 227.233,117.744 231.5,118.5C 241.648,122.321 247.315,129.654 248.5,140.5C 246.459,159.719 236.126,172.219 217.5,178C 210.639,179.988 203.639,180.822 196.5,180.5C 195.833,180.167 195.167,179.833 194.5,179.5C 193.167,177.5 191.5,175.833 189.5,174.5C 188.061,172.64 186.395,170.973 184.5,169.5C 183.499,166.828 182.499,164.162 181.5,161.5C 179.998,157.658 179.332,153.658 179.5,149.5C 180.496,149.586 181.329,149.252 182,148.5C 182.12,141.951 183.286,135.617 185.5,129.5C 185.5,129.167 185.5,128.833 185.5,128.5C 187.831,125.175 190.164,121.842 192.5,118.5C 193.833,118.167 195.167,117.833 196.5,117.5C 198.411,116.925 200.078,115.925 201.5,114.5C 206.74,113.551 212.073,113.218 217.5,113.5 Z"/></g>
<g><path style="opacity:0.996" fill="#c7a47a" d="M 197.5,107.5 C 200.518,108.855 201.851,111.188 201.5,114.5C 200.078,115.925 198.411,116.925 196.5,117.5C 197.908,116.089 198.908,114.423 199.5,112.5C 198.813,110.823 198.146,109.156 197.5,107.5 Z"/></g>
<g><path style="opacity:1" fill="#90b8d6" d="M 256.5,114.5 C 258.241,116.013 259.241,118.013 259.5,120.5C 258.936,122.819 258.436,125.153 258,127.5C 256.731,126.095 256.231,124.429 256.5,122.5C 255.127,122.657 253.793,122.49 252.5,122C 253.969,119.562 255.302,117.062 256.5,114.5 Z"/></g>
<g><path style="opacity:0.601" fill="#859eb9" d="M 322.5,116.5 C 327.486,116.305 329.152,118.472 327.5,123C 323.872,124.316 321.539,123.149 320.5,119.5C 321.193,118.482 321.859,117.482 322.5,116.5 Z"/></g>
<g><path style="opacity:1" fill="#81a06c" d="M 266.5,124.5 C 267.5,124.5 268.5,124.5 269.5,124.5C 269.5,125.833 269.5,127.167 269.5,128.5C 268.5,128.5 267.5,128.5 266.5,128.5C 266.5,127.167 266.5,125.833 266.5,124.5 Z"/></g>
<g><path style="opacity:1" fill="#ed5c2f" d="M 167.5,83.5 C 167.833,83.5 168.167,83.5 168.5,83.5C 167.657,86.5162 166.157,89.1829 164,91.5C 136.774,119.653 107.941,145.819 77.5,170C 73.7789,172.527 69.7789,174.527 65.5,176C 64.0563,176.781 62.723,176.614 61.5,175.5C 61.6236,174.893 61.9569,174.56 62.5,174.5C 71.8848,169.142 80.5515,162.808 88.5,155.5C 91.7777,154.191 94.7777,152.358 97.5,150C 117.968,132.366 137.635,113.866 156.5,94.5C 159.806,90.5271 163.473,86.8604 167.5,83.5 Z"/></g>
<g><path style="opacity:1" fill="#8dc2d9" d="M 225.5,126.5 C 233.322,126.166 236.156,129.833 234,137.5C 229.181,141.919 225.181,141.252 222,135.5C 220.98,131.553 222.147,128.553 225.5,126.5 Z"/></g>
<g><path style="opacity:1" fill="#5292bc" d="M 225.5,129.5 C 232.004,129.138 233.671,131.638 230.5,137C 224.785,137.401 223.119,134.901 225.5,129.5 Z"/></g>
<g><path style="opacity:0.415" fill="#839cb8" d="M 321.5,144.5 C 320.833,144.5 320.5,144.167 320.5,143.5C 319.596,142.791 319.263,141.791 319.5,140.5C 321.368,139.243 323.035,139.576 324.5,141.5C 323.812,142.855 322.812,143.855 321.5,144.5 Z"/></g>
<g><path style="opacity:1" fill="#8ec3d9" d="M 204.5,136.5 C 215.623,135.442 219.456,140.109 216,150.5C 209.749,157.505 204.083,157.172 199,149.5C 198.114,143.946 199.947,139.613 204.5,136.5 Z"/></g>
<g><path style="opacity:1" fill="#4e8fb9" d="M 205.5,139.5 C 212.282,138.125 215.448,140.791 215,147.5C 211.188,153.003 206.855,153.67 202,149.5C 201.182,145.469 202.349,142.136 205.5,139.5 Z"/></g>
<g><path style="opacity:1" fill="#d5cc70" d="M 161.5,142.5 C 162.833,142.5 164.167,142.5 165.5,142.5C 165.5,144.167 165.5,145.833 165.5,147.5C 164.178,147.33 163.011,147.663 162,148.5C 161.56,146.924 160.727,145.59 159.5,144.5C 160.243,143.818 160.909,143.151 161.5,142.5 Z"/></g>
<g><path style="opacity:0.996" fill="#f7d7a6" d="M 231.5,167.5 C 236.248,163.282 236.581,158.782 232.5,154C 227.271,151.29 223.104,152.457 220,157.5C 219.182,161.531 220.349,164.864 223.5,167.5C 221.248,167.084 219.748,165.751 219,163.5C 218.234,152.616 223.067,149.116 233.5,153C 239.231,158.827 238.565,163.66 231.5,167.5 Z"/></g>
<g><path style="opacity:1" fill="#dec95d" d="M 281.5,150.5 C 284.092,152.036 285.092,154.369 284.5,157.5C 282.833,157.5 281.167,157.5 279.5,157.5C 279.185,154.789 279.852,152.456 281.5,150.5 Z"/></g>
<g><path style="opacity:1" fill="#fbaf45" d="M 231.5,167.5 C 228.833,167.5 226.167,167.5 223.5,167.5C 220.349,164.864 219.182,161.531 220,157.5C 223.104,152.457 227.271,151.29 232.5,154C 236.581,158.782 236.248,163.282 231.5,167.5 Z"/></g>
<g><path style="opacity:1" fill="#8fc2d9" d="M 186.5,148.5 C 195.307,148.465 197.64,152.298 193.5,160C 189.543,162.385 186.376,161.552 184,157.5C 182.927,153.9 183.76,150.9 186.5,148.5 Z"/></g>
<g><path style="opacity:1" fill="#5091ba" d="M 186.5,150.5 C 189.325,150.081 191.491,151.081 193,153.5C 192.902,158.288 190.569,159.621 186,157.5C 185.297,155.071 185.463,152.738 186.5,150.5 Z"/></g>
<g><path style="opacity:1" fill="#ecd35c" d="M 297.5,155.5 C 298.968,156.779 299.635,158.446 299.5,160.5C 298.167,160.5 296.833,160.5 295.5,160.5C 294.202,158.091 294.869,156.425 297.5,155.5 Z"/></g>
<g><path style="opacity:0.998" fill="#7c7960" d="M 297.5,155.5 C 298.5,155.5 299.5,155.5 300.5,155.5C 300.5,157.5 300.5,159.5 300.5,161.5C 298.585,161.784 296.919,161.451 295.5,160.5C 296.833,160.5 298.167,160.5 299.5,160.5C 299.635,158.446 298.968,156.779 297.5,155.5 Z"/></g>
<g><path style="opacity:1" fill="#eca03a" d="M 181.5,161.5 C 182.499,164.162 183.499,166.828 184.5,169.5C 181.848,173.314 178.181,174.481 173.5,173C 169.78,164.965 172.447,161.132 181.5,161.5 Z"/></g>
<g><path style="opacity:1" fill="#bc6435" d="M 50.5,168.5 C 51.675,168.281 52.675,168.614 53.5,169.5C 51.9483,170.798 50.9483,170.465 50.5,168.5 Z"/></g>
<g><path style="opacity:0.999" fill="#8397b0" d="M 141.5,168.5 C 142.708,169.234 144.041,169.567 145.5,169.5C 145.5,170.833 145.5,172.167 145.5,173.5C 143.784,173.371 142.117,173.038 140.5,172.5C 141.234,171.292 141.567,169.959 141.5,168.5 Z"/></g>
<g><path style="opacity:1" fill="#d3cfc8" d="M 141.5,168.5 C 141.567,169.959 141.234,171.292 140.5,172.5C 138.694,175.338 137.694,175.005 137.5,171.5C 136.325,171.719 135.325,171.386 134.5,170.5C 136.942,168.956 138.942,166.956 140.5,164.5C 141.429,165.689 141.762,167.022 141.5,168.5 Z"/></g>
<g><path style="opacity:1" fill="#bbb3af" d="M 268.5,153.5 C 260.095,162.243 251.095,170.243 241.5,177.5C 237.795,177.871 235.795,179.871 235.5,183.5C 234.778,183.082 234.278,182.416 234,181.5C 232.385,182.386 230.885,183.386 229.5,184.5C 227.5,185.5 225.5,186.5 223.5,187.5C 222.833,187.5 222.5,187.833 222.5,188.5C 202.959,197.937 182.959,206.271 162.5,213.5C 185.731,203.357 208.731,192.523 231.5,181C 244.011,171.977 256.345,162.81 268.5,153.5 Z"/></g>
<g><path style="opacity:1" fill="#91bddd" d="M 270.5,168.5 C 272.048,168.821 272.715,169.821 272.5,171.5C 273.675,171.281 274.675,171.614 275.5,172.5C 274.94,174.854 274.273,177.187 273.5,179.5C 272.5,178.167 271.5,178.167 270.5,179.5C 269.868,176.97 268.868,174.637 267.5,172.5C 268.325,171.614 269.325,171.281 270.5,171.5C 270.5,170.5 270.5,169.5 270.5,168.5 Z"/></g>
<g><path style="opacity:1" fill="#475068" d="M 307.5,189.5 C 308.609,187.446 309.609,185.279 310.5,183C 310.241,181.739 309.574,180.739 308.5,180C 300.281,178.806 292.615,180.306 285.5,184.5C 284.833,184.5 284.5,184.167 284.5,183.5C 287.899,181.801 291.232,180.134 294.5,178.5C 299.911,176.974 305.244,175.141 310.5,173C 317.588,170.755 319.755,172.921 317,179.5C 314.332,183.334 311.165,186.667 307.5,189.5 Z"/></g>
<g><path style="opacity:1" fill="#80b3cb" d="M 161.5,171.5 C 163.176,172.183 163.843,173.517 163.5,175.5C 164.873,175.343 166.207,175.51 167.5,176C 165.926,177.826 165.093,179.993 165,182.5C 163.413,181.273 162.079,181.606 161,183.5C 160.849,180.881 160.015,178.547 158.5,176.5C 159.325,175.614 160.325,175.281 161.5,175.5C 161.5,174.167 161.5,172.833 161.5,171.5 Z"/></g>
<g><path style="opacity:0.843" fill="#bfbbb5" d="M 248.5,140.5 C 249.922,147.782 249.589,155.115 247.5,162.5C 246.662,162.842 246.328,163.508 246.5,164.5C 245.833,164.833 245.167,165.167 244.5,165.5C 243.833,165.5 243.5,165.833 243.5,166.5C 233.5,172.833 223.5,179.167 213.5,185.5C 213.167,185.5 212.833,185.5 212.5,185.5C 206.944,184.648 201.61,182.982 196.5,180.5C 203.639,180.822 210.639,179.988 217.5,178C 236.126,172.219 246.459,159.719 248.5,140.5 Z"/></g>
<g><path style="opacity:0.314" fill="#c9ae8c" d="M 327.5,165.5 C 329.1,166.952 330.1,168.785 330.5,171C 329.744,174.125 329.411,177.291 329.5,180.5C 328.833,178.5 328.167,176.5 327.5,174.5C 328.819,172.532 328.819,170.532 327.5,168.5C 324.914,167.52 322.247,167.187 319.5,167.5C 322.167,166.833 324.833,166.167 327.5,165.5 Z"/></g>
<g><path style="opacity:1" fill="#ef381c" d="M 241.5,177.5 C 242.833,178.167 243.833,179.167 244.5,180.5C 241.632,181.353 238.965,182.686 236.5,184.5C 235.833,184.5 235.5,184.167 235.5,183.5C 235.795,179.871 237.795,177.871 241.5,177.5 Z"/></g>
<g><path style="opacity:1" fill="#bebab5" d="M 189.5,174.5 C 191.5,175.833 193.167,177.5 194.5,179.5C 186.117,184.358 177.45,188.692 168.5,192.5C 168.953,191.542 169.619,190.708 170.5,190C 176.833,186.5 183.167,183 189.5,179.5C 190.562,178.575 190.562,177.575 189.5,176.5C 189.5,175.833 189.5,175.167 189.5,174.5 Z"/></g>
<g><path style="opacity:1" fill="#e67719" d="M 244.5,180.5 C 245.833,181.167 246.833,182.167 247.5,183.5C 245.5,185.5 243.5,187.5 241.5,189.5C 238.833,188.833 237.167,187.167 236.5,184.5C 238.965,182.686 241.632,181.353 244.5,180.5 Z"/></g>
<g><path style="opacity:0.996" fill="#cfb996" d="M 293.5,177.5 C 293.5,178.167 293.833,178.5 294.5,178.5C 291.232,180.134 287.899,181.801 284.5,183.5C 283.833,183.833 283.167,184.167 282.5,184.5C 281.833,184.5 281.167,184.5 280.5,184.5C 284.347,181.407 288.68,179.074 293.5,177.5 Z"/></g>
<g><path style="opacity:1" fill="#4587b3" d="M 297.5,193.5 C 295.105,190.139 292.105,187.472 288.5,185.5C 294.03,183.875 299.697,183.209 305.5,183.5C 304.704,188.299 302.037,191.633 297.5,193.5 Z"/></g>
<g><path style="opacity:1" fill="#ee3219" d="M 247.5,183.5 C 250.061,185.371 252.561,187.371 255,189.5C 255.371,194.754 252.871,196.921 247.5,196C 244.591,194.594 242.591,192.428 241.5,189.5C 243.5,187.5 245.5,185.5 247.5,183.5 Z"/></g>
<g><path style="opacity:1" fill="#7b98b5" d="M 86.5,184.5 C 88.8568,184.337 91.1902,184.503 93.5,185C 94.5171,186.049 94.6838,187.216 94,188.5C 91.306,189.883 88.4726,190.383 85.5,190C 84.2427,187.924 84.576,186.09 86.5,184.5 Z"/></g>
<g><path style="opacity:1" fill="#ef3c1c" d="M 229.5,184.5 C 229.833,185.167 230.167,185.833 230.5,186.5C 230.5,187.833 230.5,189.167 230.5,190.5C 228.409,190.318 226.409,190.652 224.5,191.5C 223.571,190.311 223.238,188.978 223.5,187.5C 225.5,186.5 227.5,185.5 229.5,184.5 Z"/></g>
<g><path style="opacity:1" fill="#ee8037" d="M 280.5,184.5 C 281.167,184.5 281.833,184.5 282.5,184.5C 286.141,187.325 290.141,189.658 294.5,191.5C 295.652,193.397 295.319,195.064 293.5,196.5C 281.887,202.696 269.887,207.696 257.5,211.5C 255.833,211.5 254.167,211.5 252.5,211.5C 252.283,206.77 252.617,202.103 253.5,197.5C 259.998,188.085 268.998,183.752 280.5,184.5 Z"/></g>
<g><path style="opacity:0.996" fill="#7c7f8e" d="M 284.5,183.5 C 284.5,184.167 284.833,184.5 285.5,184.5C 286.209,185.404 287.209,185.737 288.5,185.5C 292.105,187.472 295.105,190.139 297.5,193.5C 296.738,195.262 295.404,196.262 293.5,196.5C 295.319,195.064 295.652,193.397 294.5,191.5C 290.141,189.658 286.141,187.325 282.5,184.5C 283.167,184.167 283.833,183.833 284.5,183.5 Z"/></g>
<g><path style="opacity:1" fill="#f1ac51" d="M 118.5,185.5 C 120.067,186.681 120.901,188.347 121,190.5C 122.635,191.726 124.135,193.059 125.5,194.5C 122.302,197.296 121.635,200.63 123.5,204.5C 120.678,204.322 118.011,203.655 115.5,202.5C 110.596,203.934 109.263,202.101 111.5,197C 111.166,194.825 110.166,192.992 108.5,191.5C 113.334,191.714 116.668,189.714 118.5,185.5 Z"/></g>
<g><path style="opacity:1" fill="#d9552d" d="M 230.5,186.5 C 234.064,192.154 235.064,198.154 233.5,204.5C 233.89,200.606 233.223,196.94 231.5,193.5C 229.5,194.167 227.5,194.833 225.5,195.5C 224.52,198.086 224.187,200.753 224.5,203.5C 223.407,198.694 222.741,193.694 222.5,188.5C 222.5,187.833 222.833,187.5 223.5,187.5C 223.238,188.978 223.571,190.311 224.5,191.5C 226.409,190.652 228.409,190.318 230.5,190.5C 230.5,189.167 230.5,187.833 230.5,186.5 Z"/></g>
<g><path style="opacity:1" fill="#f0361a" d="M 233.5,204.5 C 231.947,207.254 229.614,208.087 226.5,207C 225.177,206.184 224.511,205.017 224.5,203.5C 224.187,200.753 224.52,198.086 225.5,195.5C 227.5,194.833 229.5,194.167 231.5,193.5C 233.223,196.94 233.89,200.606 233.5,204.5 Z"/></g>
<g><path style="opacity:0.866" fill="#e2ddd2" d="M 268.5,153.5 C 256.345,162.81 244.011,171.977 231.5,181C 208.731,192.523 185.731,203.357 162.5,213.5C 156.65,216.057 150.483,217.723 144,218.5C 132.689,217.667 131.523,213.5 140.5,206C 145.071,202.579 149.737,199.412 154.5,196.5C 155.71,196.068 156.71,195.401 157.5,194.5C 158.492,194.672 159.158,194.338 159.5,193.5C 160.167,193.5 160.5,193.167 160.5,192.5C 161.492,192.672 162.158,192.338 162.5,191.5C 163.492,191.672 164.158,191.338 164.5,190.5C 165.167,190.5 165.5,190.167 165.5,189.5C 166.492,189.672 167.158,189.338 167.5,188.5C 168.167,188.5 168.5,188.167 168.5,187.5C 169.492,187.672 170.158,187.338 170.5,186.5C 171.492,186.672 172.158,186.338 172.5,185.5C 173.492,185.672 174.158,185.338 174.5,184.5C 175.167,184.5 175.5,184.167 175.5,183.5C 176.492,183.672 177.158,183.338 177.5,182.5C 178.492,182.672 179.158,182.338 179.5,181.5C 180.492,181.672 181.158,181.338 181.5,180.5C 182.492,180.672 183.158,180.338 183.5,179.5C 185.5,178.5 187.5,177.5 189.5,176.5C 190.562,177.575 190.562,178.575 189.5,179.5C 183.167,183 176.833,186.5 170.5,190C 169.619,190.708 168.953,191.542 168.5,192.5C 162.111,194.782 156.611,198.448 152,203.5C 151.333,204.5 151.333,205.5 152,206.5C 153.045,207.373 153.878,208.373 154.5,209.5C 152.956,210.728 154.623,210.894 159.5,210C 160.737,209.768 161.737,209.268 162.5,208.5C 163.791,208.737 164.791,208.404 165.5,207.5C 166.791,207.737 167.791,207.404 168.5,206.5C 170.553,206.598 172.22,205.931 173.5,204.5C 174.492,204.672 175.158,204.338 175.5,203.5C 175.833,203.5 176.167,203.5 176.5,203.5C 177.492,203.672 178.158,203.338 178.5,202.5C 178.833,202.5 179.167,202.5 179.5,202.5C 180.167,202.5 180.5,202.167 180.5,201.5C 180.833,201.5 181.167,201.5 181.5,201.5C 182.492,201.672 183.158,201.338 183.5,200.5C 183.833,200.5 184.167,200.5 184.5,200.5C 185.167,200.5 185.5,200.167 185.5,199.5C 185.833,199.5 186.167,199.5 186.5,199.5C 187.167,199.5 187.5,199.167 187.5,198.5C 188.167,198.5 188.833,198.5 189.5,198.5C 190.167,198.5 190.5,198.167 190.5,197.5C 190.833,197.5 191.167,197.5 191.5,197.5C 192.167,197.5 192.5,197.167 192.5,196.5C 199.45,193.692 206.117,190.358 212.5,186.5C 213.167,186.5 213.5,186.167 213.5,185.5C 223.5,179.167 233.5,172.833 243.5,166.5C 244.167,166.5 244.5,166.167 244.5,165.5C 245.167,165.167 245.833,164.833 246.5,164.5C 247.71,164.068 248.71,163.401 249.5,162.5C 250.167,162.5 250.5,162.167 250.5,161.5C 251.492,161.672 252.158,161.338 252.5,160.5C 253.167,160.5 253.5,160.167 253.5,159.5C 254.492,159.672 255.158,159.338 255.5,158.5C 256.167,158.5 256.5,158.167 256.5,157.5C 257.492,157.672 258.158,157.338 258.5,156.5C 259.167,156.5 259.5,156.167 259.5,155.5C 260.492,155.672 261.158,155.338 261.5,154.5C 262.167,154.5 262.5,154.167 262.5,153.5C 263.492,153.672 264.158,153.338 264.5,152.5C 265.167,152.5 265.5,152.167 265.5,151.5C 266.492,151.672 267.158,151.338 267.5,150.5C 268.167,150.5 268.5,150.167 268.5,149.5C 269.492,149.672 270.158,149.338 270.5,148.5C 271.167,148.5 271.5,148.167 271.5,147.5C 272.167,147.5 272.5,147.167 272.5,146.5C 273.451,145.081 273.784,143.415 273.5,141.5C 266.964,141.513 260.631,142.347 254.5,144C 263.914,138.98 273.914,137.147 284.5,138.5C 279.776,144.227 274.442,149.227 268.5,153.5 Z M 173.5,204.5 C 172.22,205.931 170.553,206.598 168.5,206.5C 169.78,205.069 171.447,204.402 173.5,204.5 Z M 162.5,208.5 C 161.737,209.268 160.737,209.768 159.5,210C 154.623,210.894 152.956,210.728 154.5,209.5C 157.167,209.167 159.833,208.833 162.5,208.5 Z"/></g>
<g><path style="opacity:0.936" fill="#3c4762" d="M 194.5,179.5 C 195.167,179.833 195.833,180.167 196.5,180.5C 201.61,182.982 206.944,184.648 212.5,185.5C 212.5,185.833 212.5,186.167 212.5,186.5C 206.117,190.358 199.45,193.692 192.5,196.5C 191.833,196.5 191.5,196.833 191.5,197.5C 191.167,197.5 190.833,197.5 190.5,197.5C 189.833,197.5 189.5,197.833 189.5,198.5C 188.833,198.5 188.167,198.5 187.5,198.5C 186.833,198.5 186.5,198.833 186.5,199.5C 186.167,199.5 185.833,199.5 185.5,199.5C 184.833,199.5 184.5,199.833 184.5,200.5C 184.167,200.5 183.833,200.5 183.5,200.5C 182.508,200.328 181.842,200.662 181.5,201.5C 181.167,201.5 180.833,201.5 180.5,201.5C 179.833,201.5 179.5,201.833 179.5,202.5C 179.167,202.5 178.833,202.5 178.5,202.5C 177.508,202.328 176.842,202.662 176.5,203.5C 176.167,203.5 175.833,203.5 175.5,203.5C 174.508,203.328 173.842,203.662 173.5,204.5C 171.447,204.402 169.78,205.069 168.5,206.5C 167.209,206.263 166.209,206.596 165.5,207.5C 164.209,207.263 163.209,207.596 162.5,208.5C 159.833,208.833 157.167,209.167 154.5,209.5C 153.878,208.373 153.045,207.373 152,206.5C 151.333,205.5 151.333,204.5 152,203.5C 156.611,198.448 162.111,194.782 168.5,192.5C 177.45,188.692 186.117,184.358 194.5,179.5 Z"/></g>
<g><path style="opacity:0.998" fill="#bd6434" d="M 63.5,197.5 C 65.337,197.639 65.6704,198.306 64.5,199.5C 63.7025,199.043 63.3691,198.376 63.5,197.5 Z"/></g>
<g><path style="opacity:1" fill="#86b8cf" d="M 307.5,189.5 C 298.21,197.811 288.21,205.144 277.5,211.5C 266.625,215.875 255.292,218.209 243.5,218.5C 240.865,217.461 238.865,215.794 237.5,213.5C 239.58,211.427 241.246,209.093 242.5,206.5C 245.19,203.815 248.19,201.482 251.5,199.5C 249.976,203.202 247.81,206.536 245,209.5C 244.51,210.793 244.343,212.127 244.5,213.5C 249.049,213.376 253.382,212.709 257.5,211.5C 269.887,207.696 281.887,202.696 293.5,196.5C 295.404,196.262 296.738,195.262 297.5,193.5C 302.037,191.633 304.704,188.299 305.5,183.5C 299.697,183.209 294.03,183.875 288.5,185.5C 287.209,185.737 286.209,185.404 285.5,184.5C 292.615,180.306 300.281,178.806 308.5,180C 309.574,180.739 310.241,181.739 310.5,183C 309.609,185.279 308.609,187.446 307.5,189.5 Z"/></g>
<g><path style="opacity:1" fill="#c76a31" d="M 305.5,200.5 C 307.242,205.308 307.909,210.308 307.5,215.5C 306.5,215.5 305.5,215.5 304.5,215.5C 306.273,212.512 306.94,209.179 306.5,205.5C 300.595,207.793 295.262,211.126 290.5,215.5C 292.743,216.474 295.076,216.808 297.5,216.5C 297.5,216.833 297.5,217.167 297.5,217.5C 292.167,217.5 286.833,217.5 281.5,217.5C 289.814,212.337 297.814,206.671 305.5,200.5 Z"/></g>
<g><path style="opacity:0.648" fill="#7c8da6" d="M 29.5,175.5 C 27.8351,190.444 27.1684,205.444 27.5,220.5C 25.3606,205.431 26.0273,190.431 29.5,175.5 Z"/></g>
<g><path style="opacity:1" fill="#5587ad" d="M 253.5,197.5 C 252.617,202.103 252.283,206.77 252.5,211.5C 254.167,211.5 255.833,211.5 257.5,211.5C 253.382,212.709 249.049,213.376 244.5,213.5C 244.343,212.127 244.51,210.793 245,209.5C 247.81,206.536 249.976,203.202 251.5,199.5C 251.833,198.5 252.5,197.833 253.5,197.5 Z"/></g>
<g><path style="opacity:1" fill="#e77818" d="M 304.5,215.5 C 302.194,215.993 299.861,216.326 297.5,216.5C 295.076,216.808 292.743,216.474 290.5,215.5C 295.262,211.126 300.595,207.793 306.5,205.5C 306.94,209.179 306.273,212.512 304.5,215.5 Z"/></g>
<g><path style="opacity:1" fill="#f4da5b" d="M 44.5,207.5 C 45.3164,209.144 46.6498,210.31 48.5,211C 47.6198,212.356 47.2865,213.856 47.5,215.5C 45.8561,215.286 44.3561,215.62 43,216.5C 42.6964,214.559 41.8631,212.893 40.5,211.5C 42.4206,210.676 43.754,209.343 44.5,207.5 Z"/></g>
<g><path style="opacity:1" fill="#cbc8c2" d="M 85.5,209.5 C 90.1585,209.015 91.4919,210.848 89.5,215C 85.2662,215.267 83.9329,213.434 85.5,209.5 Z"/></g>
<g><path style="opacity:1" fill="#dec699" d="M 242.5,206.5 C 241.246,209.093 239.58,211.427 237.5,213.5C 235.833,215.833 233.833,217.833 231.5,219.5C 231.5,218.167 230.833,217.5 229.5,217.5C 233.515,213.487 237.848,209.821 242.5,206.5 Z"/></g>
<g><path style="opacity:1" fill="#3f4963" d="M 237.5,213.5 C 238.865,215.794 240.865,217.461 243.5,218.5C 247.135,218.902 249.468,220.902 250.5,224.5C 243.855,227.773 236.855,229.273 229.5,229C 228.424,227.274 228.257,225.441 229,223.5C 230.095,222.307 230.928,220.973 231.5,219.5C 233.833,217.833 235.833,215.833 237.5,213.5 Z"/></g>
<g><path style="opacity:1" fill="#618cad" d="M 277.5,211.5 C 274.227,214.144 270.56,216.311 266.5,218C 261.079,219.865 255.745,222.031 250.5,224.5C 249.468,220.902 247.135,218.902 243.5,218.5C 255.292,218.209 266.625,215.875 277.5,211.5 Z"/></g>
<g><path style="opacity:1" fill="#f2e26e" d="M 319.5,167.5 C 323.254,168.772 324.42,171.439 323,175.5C 319.355,183.152 314.189,189.652 307.5,195C 291.372,208.395 273.705,219.228 254.5,227.5C 248.74,229.365 243.073,231.532 237.5,234C 232.572,235.418 227.572,235.751 222.5,235C 221.139,233.416 220.472,231.582 220.5,229.5C 220.5,228.833 220.5,228.167 220.5,227.5C 222.788,223.544 225.788,220.211 229.5,217.5C 230.833,217.5 231.5,218.167 231.5,219.5C 230.928,220.973 230.095,222.307 229,223.5C 228.257,225.441 228.424,227.274 229.5,229C 236.855,229.273 243.855,227.773 250.5,224.5C 255.745,222.031 261.079,219.865 266.5,218C 270.56,216.311 274.227,214.144 277.5,211.5C 288.21,205.144 298.21,197.811 307.5,189.5C 311.165,186.667 314.332,183.334 317,179.5C 319.755,172.921 317.588,170.755 310.5,173C 305.244,175.141 299.911,176.974 294.5,178.5C 293.833,178.5 293.5,178.167 293.5,177.5C 301.46,172.527 310.127,169.194 319.5,167.5 Z"/></g>
<g><path style="opacity:0.993" fill="#929977" d="M 281.5,217.5 C 286.833,217.5 292.167,217.5 297.5,217.5C 291.3,218.243 284.966,218.91 278.5,219.5C 278.973,218.094 279.973,217.427 281.5,217.5 Z"/></g>
<g><path style="opacity:1" fill="#6fb1d4" d="M 290.5,237.5 C 280.39,243.101 270.39,242.767 260.5,236.5C 260.414,235.504 260.748,234.671 261.5,234C 268.833,229.333 276.167,224.667 283.5,220C 290.851,219.415 298.185,219.082 305.5,219C 302.149,226.517 297.149,232.683 290.5,237.5 Z"/></g>
<g><path style="opacity:1" fill="#5d8bab" d="M 304.5,215.5 C 305.5,215.5 306.5,215.5 307.5,215.5C 305.52,225.799 299.854,233.132 290.5,237.5C 297.149,232.683 302.149,226.517 305.5,219C 298.185,219.082 290.851,219.415 283.5,220C 276.167,224.667 268.833,229.333 261.5,234C 260.748,234.671 260.414,235.504 260.5,236.5C 259.167,235.833 258.167,234.833 257.5,233.5C 260.091,231.719 262.425,229.719 264.5,227.5C 266.848,227.408 268.514,226.408 269.5,224.5C 272.24,222.44 275.24,220.774 278.5,219.5C 284.966,218.91 291.3,218.243 297.5,217.5C 297.5,217.167 297.5,216.833 297.5,216.5C 299.861,216.326 302.194,215.993 304.5,215.5 Z"/></g>
<g><path style="opacity:1" fill="#98c1d3" d="M 198.5,223.5 C 203.984,223.481 205.65,225.981 203.5,231C 199.639,233.633 197.306,232.8 196.5,228.5C 196.437,226.486 197.103,224.819 198.5,223.5 Z"/></g>
<g><path style="opacity:1" fill="#fbb23a" d="M 69.5,225.5 C 83.8777,222.969 96.5443,226.302 107.5,235.5C 105.388,238.063 102.721,239.896 99.5,241C 90.9405,242.638 82.9405,241.304 75.5,237C 72.8823,234.894 70.8823,232.394 69.5,229.5C 72.408,230.569 75.408,230.736 78.5,230C 79.91,229.632 80.91,228.799 81.5,227.5C 77.4885,226.302 73.4885,226.302 69.5,227.5C 69.5,226.833 69.5,226.167 69.5,225.5 Z"/></g>
<g><path style="opacity:0.996" fill="#909476" d="M 269.5,224.5 C 268.514,226.408 266.848,227.408 264.5,227.5C 265.659,225.75 267.326,224.75 269.5,224.5 Z"/></g>
<g><path style="opacity:1" fill="#fbb13a" d="M 67.5,226.5 C 67.6178,229.688 68.4511,232.688 70,235.5C 82.6225,249.624 97.4559,252.29 114.5,243.5C 115.518,244.193 116.518,244.859 117.5,245.5C 118.191,250.598 119.358,255.598 121,260.5C 121.816,265.684 121.65,270.684 120.5,275.5C 103.438,281.151 86.1045,281.984 68.5,278C 57.888,274.276 49.388,267.776 43,258.5C 41.6136,255.028 39.7803,252.028 37.5,249.5C 39.7307,243.705 43.3974,239.039 48.5,235.5C 49.4143,240.36 51.7476,244.527 55.5,248C 59.1122,249.139 62.4456,250.806 65.5,253C 68.2272,253.818 70.8938,253.652 73.5,252.5C 63.1517,249.157 57.1517,242.157 55.5,231.5C 59.2132,229.315 63.2132,227.648 67.5,226.5 Z"/></g>
<g><path style="opacity:0.996" fill="#eda969" d="M 109.5,235.5 C 108.833,235.5 108.167,235.5 107.5,235.5C 96.5443,226.302 83.8777,222.969 69.5,225.5C 68.5084,225.328 67.8417,225.662 67.5,226.5C 63.2132,227.648 59.2132,229.315 55.5,231.5C 54.8333,231.5 54.1667,231.5 53.5,231.5C 57.8806,227.976 62.8806,225.476 68.5,224C 84.1839,221.226 97.8506,225.059 109.5,235.5 Z"/></g>
<g><path style="opacity:1" fill="#fce56b" d="M 69.5,229.5 C 69.5,228.833 69.5,228.167 69.5,227.5C 73.4885,226.302 77.4885,226.302 81.5,227.5C 80.91,228.799 79.91,229.632 78.5,230C 75.408,230.736 72.408,230.569 69.5,229.5 Z"/></g>
<g><path style="opacity:1" fill="#89b7ce" d="M 132.5,226.5 C 134.564,226.762 135.897,227.929 136.5,230C 139.553,230.179 142.553,230.679 145.5,231.5C 144.826,233.517 143.659,235.183 142,236.5C 141.505,238.473 141.338,240.473 141.5,242.5C 139.213,242.276 137.047,241.609 135,240.5C 132.79,242.111 130.29,242.778 127.5,242.5C 129.49,238.288 128.823,234.622 125.5,231.5C 127.423,230.692 129.423,230.192 131.5,230C 132.337,228.989 132.67,227.822 132.5,226.5 Z"/></g>
<g><path style="opacity:1" fill="#ea8126" d="M 319.5,167.5 C 322.247,167.187 324.914,167.52 327.5,168.5C 328.819,170.532 328.819,172.532 327.5,174.5C 321.985,184.684 314.652,193.35 305.5,200.5C 297.814,206.671 289.814,212.337 281.5,217.5C 279.973,217.427 278.973,218.094 278.5,219.5C 275.24,220.774 272.24,222.44 269.5,224.5C 267.326,224.75 265.659,225.75 264.5,227.5C 260.849,228.659 257.515,230.326 254.5,232.5C 248.854,234.653 243.188,236.82 237.5,239C 231.269,240.848 224.935,241.515 218.5,241C 216.643,239.818 215.643,238.151 215.5,236C 216.172,232.514 217.839,229.68 220.5,227.5C 220.5,228.167 220.5,228.833 220.5,229.5C 218.959,234.987 221.292,237.654 227.5,237.5C 237.334,236.068 246.334,232.735 254.5,227.5C 273.705,219.228 291.372,208.395 307.5,195C 314.189,189.652 319.355,183.152 323,175.5C 324.42,171.439 323.254,168.772 319.5,167.5 Z"/></g>
<g><path style="opacity:0.996" fill="#7c8a86" d="M 264.5,227.5 C 262.425,229.719 260.091,231.719 257.5,233.5C 256.609,232.89 255.609,232.557 254.5,232.5C 257.515,230.326 260.849,228.659 264.5,227.5 Z"/></g>
<g><path style="opacity:1" fill="#f3843b" d="M 53.5,231.5 C 54.1667,231.5 54.8333,231.5 55.5,231.5C 57.1517,242.157 63.1517,249.157 73.5,252.5C 70.8938,253.652 68.2272,253.818 65.5,253C 62.4456,250.806 59.1122,249.139 55.5,248C 51.7476,244.527 49.4143,240.36 48.5,235.5C 49.5846,233.413 51.2512,232.08 53.5,231.5 Z"/></g>
<g><path style="opacity:1" fill="#f3863b" d="M 69.5,225.5 C 69.5,226.167 69.5,226.833 69.5,227.5C 69.5,228.167 69.5,228.833 69.5,229.5C 70.8823,232.394 72.8823,234.894 75.5,237C 82.9405,241.304 90.9405,242.638 99.5,241C 102.721,239.896 105.388,238.063 107.5,235.5C 108.167,235.5 108.833,235.5 109.5,235.5C 113.3,237.963 115.967,241.296 117.5,245.5C 116.518,244.859 115.518,244.193 114.5,243.5C 97.4559,252.29 82.6225,249.624 70,235.5C 68.4511,232.688 67.6178,229.688 67.5,226.5C 67.8417,225.662 68.5084,225.328 69.5,225.5 Z"/></g>
<g><path style="opacity:1" fill="#fab13b" d="M 254.5,227.5 C 246.334,232.735 237.334,236.068 227.5,237.5C 221.292,237.654 218.959,234.987 220.5,229.5C 220.472,231.582 221.139,233.416 222.5,235C 227.572,235.751 232.572,235.418 237.5,234C 243.073,231.532 248.74,229.365 254.5,227.5 Z"/></g>
<g><path style="opacity:0.242" fill="#bfbab4" d="M 329.5,243.5 C 330.5,243.5 331.5,243.5 332.5,243.5C 331.5,248.833 330.5,248.833 329.5,243.5 Z"/></g>
<g><path style="opacity:1" fill="#fddf59" d="M 37.5,249.5 C 39.7803,252.028 41.6136,255.028 43,258.5C 49.388,267.776 57.888,274.276 68.5,278C 86.1045,281.984 103.438,281.151 120.5,275.5C 119.876,281.078 117.876,286.078 114.5,290.5C 101.811,291.969 89.144,291.803 76.5,290C 70.3594,288.924 64.6928,286.757 59.5,283.5C 56.7972,281.819 54.1305,280.153 51.5,278.5C 45.5,273.167 39.8333,267.5 34.5,261.5C 34.5079,258.455 34.8413,255.455 35.5,252.5C 36.4013,251.71 37.0679,250.71 37.5,249.5 Z"/></g>
<g><path style="opacity:1" fill="#b36238" d="M 243.5,250.5 C 246.166,250.066 247.333,251.066 247,253.5C 243.403,255.066 242.237,254.066 243.5,250.5 Z"/></g>
<g><path style="opacity:0.993" fill="#687893" d="M 172.5,288.5 C 173.861,286.473 175.527,284.806 177.5,283.5C 178.391,282.89 179.391,282.557 180.5,282.5C 183.812,282.851 186.145,281.518 187.5,278.5C 191.71,273.817 192.544,268.484 190,262.5C 185.234,257.686 179.734,256.352 173.5,258.5C 170.883,259.786 168.55,261.453 166.5,263.5C 165.833,263.5 165.5,263.833 165.5,264.5C 163.856,264.81 162.856,265.81 162.5,267.5C 155.729,272.219 148.396,275.885 140.5,278.5C 141.833,276.833 141.833,275.167 140.5,273.5C 145.479,271.346 150.479,269.179 155.5,267C 160.543,262.288 165.877,257.955 171.5,254C 189.834,247.322 198.834,253.655 198.5,273C 198.379,278.911 195.712,283.245 190.5,286C 184.36,286.098 178.36,286.932 172.5,288.5 Z"/></g>
<g><path style="opacity:0.462" fill="#6a7a95" d="M 306.5,255.5 C 307.833,255.5 309.167,255.5 310.5,255.5C 310.5,256.833 310.5,258.167 310.5,259.5C 306.56,260.234 305.227,258.901 306.5,255.5 Z"/></g>
<g><path style="opacity:1" fill="#ec8d48" d="M 117.5,245.5 C 118.804,246.987 119.97,248.654 121,250.5C 128.301,271.131 123.801,288.465 107.5,302.5C 105.072,304.043 102.406,305.043 99.5,305.5C 106.043,302.113 111.043,297.113 114.5,290.5C 117.876,286.078 119.876,281.078 120.5,275.5C 121.65,270.684 121.816,265.684 121,260.5C 119.358,255.598 118.191,250.598 117.5,245.5 Z"/></g>
<g><path style="opacity:1" fill="#849db9" d="M 173.5,258.5 C 179.734,256.352 185.234,257.686 190,262.5C 192.544,268.484 191.71,273.817 187.5,278.5C 187.5,278.167 187.5,277.833 187.5,277.5C 190.314,265.418 185.647,259.085 173.5,258.5 Z"/></g>
<g><path style="opacity:1" fill="#f3ac4f" d="M 222.5,254.5 C 223.376,254.369 224.043,254.702 224.5,255.5C 225.093,257.382 225.76,259.215 226.5,261C 229.167,261.333 231.833,261.667 234.5,262C 232.751,263.292 230.918,264.458 229,265.5C 228.997,268.032 229.497,270.532 230.5,273C 230.167,273.833 229.833,274.667 229.5,275.5C 225.496,271.193 220.996,270.526 216,273.5C 215.667,270.833 215.333,268.167 215,265.5C 213.028,264.695 211.528,263.361 210.5,261.5C 213.447,260.679 216.447,260.179 219.5,260C 220.758,258.259 221.758,256.426 222.5,254.5 Z"/></g>
<g><path style="opacity:0.97" fill="#9acbe8" d="M 173.5,258.5 C 185.647,259.085 190.314,265.418 187.5,277.5C 186.833,276.167 186.167,274.833 185.5,273.5C 185.167,272.5 184.5,271.833 183.5,271.5C 181.105,270.186 178.605,270.186 176,271.5C 175.748,275.791 177.248,279.457 180.5,282.5C 179.391,282.557 178.391,282.89 177.5,283.5C 166.343,284.009 161.343,278.675 162.5,267.5C 162.856,265.81 163.856,264.81 165.5,264.5C 166.167,264.5 166.5,264.167 166.5,263.5C 168.55,261.453 170.883,259.786 173.5,258.5 Z"/></g>
<g><path style="opacity:1" fill="#f8d8a3" d="M 294.5,264.5 C 294.842,265.338 295.508,265.672 296.5,265.5C 297.579,267.543 299.246,268.876 301.5,269.5C 301.665,272.85 301.498,276.183 301,279.5C 300.197,283.678 298.364,287.345 295.5,290.5C 275.872,300.762 254.872,305.428 232.5,304.5C 230.847,304.34 229.514,303.674 228.5,302.5C 230.833,302.5 233.167,302.5 235.5,302.5C 237.628,303.629 239.961,303.796 242.5,303C 243.413,301.586 243.413,300.086 242.5,298.5C 243.8,293.4 243.8,288.4 242.5,283.5C 244.588,281.664 245.921,279.331 246.5,276.5C 258.941,258.939 274.941,254.939 294.5,264.5 Z"/></g>
<g><path style="opacity:1" fill="#ec7d16" d="M 62.5,262.5 C 66.059,262.408 69.3924,263.241 72.5,265C 73.9114,268.282 72.7448,270.116 69,270.5C 63.825,269.86 61.6583,267.193 62.5,262.5 Z"/></g>
<g><path style="opacity:1" fill="#fab13d" d="M 34.5,261.5 C 39.8333,267.5 45.5,273.167 51.5,278.5C 50.0328,278.106 48.5328,277.773 47,277.5C 43.7622,280.917 40.2622,281.25 36.5,278.5C 34.8754,272.969 34.2087,267.303 34.5,261.5 Z"/></g>
<g><path style="opacity:1" fill="#f4bb88" d="M 302.5,264.5 C 309.655,263.345 316.988,263.178 324.5,264C 326.852,264.24 328.852,265.073 330.5,266.5C 329.833,266.5 329.167,266.5 328.5,266.5C 324.985,265.081 321.319,264.414 317.5,264.5C 312.5,264.5 307.5,264.5 302.5,264.5 Z"/></g>
<g><path style="opacity:0.371" fill="#e6dbcc" d="M 308.5,302.5 C 308.5,300.833 308.5,299.167 308.5,297.5C 309.028,296.279 309.695,295.113 310.5,294C 318.123,290.273 324.956,285.439 331,279.5C 332.84,277.319 334.007,274.819 334.5,272C 334.475,270.124 333.809,268.624 332.5,267.5C 331.833,267.167 331.167,266.833 330.5,266.5C 328.852,265.073 326.852,264.24 324.5,264C 316.988,263.178 309.655,263.345 302.5,264.5C 300.435,264.517 298.435,264.85 296.5,265.5C 295.508,265.672 294.842,265.338 294.5,264.5C 295.391,263.89 296.391,263.557 297.5,263.5C 306.759,261.769 316.092,261.269 325.5,262C 336.246,263.992 339.079,269.825 334,279.5C 327.623,286.545 320.123,292.045 311.5,296C 310.868,298.415 309.868,300.582 308.5,302.5 Z"/></g>
<g><path style="opacity:1" fill="#eb7f1d" d="M 302.5,264.5 C 307.5,264.5 312.5,264.5 317.5,264.5C 319.868,265.783 322.035,267.45 324,269.5C 324.597,272.681 324.097,275.681 322.5,278.5C 316.202,284.937 308.869,290.104 300.5,294C 289.681,299.218 278.348,302.718 266.5,304.5C 282.424,301.018 297.09,294.518 310.5,285C 312.808,282.872 314.474,280.372 315.5,277.5C 315.601,273.425 313.601,270.925 309.5,270C 306.854,269.503 304.187,269.336 301.5,269.5C 299.246,268.876 297.579,267.543 296.5,265.5C 298.435,264.85 300.435,264.517 302.5,264.5 Z"/></g>
<g><path style="opacity:1" fill="#fddc58" d="M 317.5,264.5 C 321.319,264.414 324.985,265.081 328.5,266.5C 331.541,271.443 330.541,275.609 325.5,279C 324.251,279.74 323.251,279.573 322.5,278.5C 324.097,275.681 324.597,272.681 324,269.5C 322.035,267.45 319.868,265.783 317.5,264.5 Z"/></g>
<g><path style="opacity:1" fill="#849db9" d="M 162.5,267.5 C 161.343,278.675 166.343,284.009 177.5,283.5C 175.527,284.806 173.861,286.473 172.5,288.5C 171.833,288.833 171.167,289.167 170.5,289.5C 166.188,291.321 161.855,293.154 157.5,295C 151.215,296.355 144.882,296.689 138.5,296C 132.109,293.269 130.943,289.102 135,283.5C 136.707,281.963 138.207,280.296 139.5,278.5C 139.833,278.5 140.167,278.5 140.5,278.5C 148.396,275.885 155.729,272.219 162.5,267.5 Z"/></g>
<g><path style="opacity:0.529" fill="#bfbab5" d="M 21.5,269.5 C 22.8333,269.5 24.1667,269.5 25.5,269.5C 24.3182,276.085 22.9848,276.085 21.5,269.5 Z"/></g>
<g><path style="opacity:0.967" fill="#d2ab7f" d="M 301.5,269.5 C 304.187,269.336 306.854,269.503 309.5,270C 313.601,270.925 315.601,273.425 315.5,277.5C 314.078,278.925 312.411,279.925 310.5,280.5C 315.263,273.241 313.263,270.574 304.5,272.5C 306.462,275.433 308.129,278.433 309.5,281.5C 309.063,283.074 308.063,284.241 306.5,285C 303.09,287.372 299.423,289.205 295.5,290.5C 298.364,287.345 300.197,283.678 301,279.5C 301.498,276.183 301.665,272.85 301.5,269.5 Z"/></g>
<g><path style="opacity:1" fill="#f7ad48" d="M 183.5,271.5 C 184.5,271.833 185.167,272.5 185.5,273.5C 185.662,275.527 185.495,277.527 185,279.5C 181.592,281.223 179.259,280.223 178,276.5C 177.506,274.866 177.34,273.199 177.5,271.5C 179.5,271.5 181.5,271.5 183.5,271.5 Z"/></g>
<g><path style="opacity:1" fill="#87a770" d="M 140.5,273.5 C 141.833,275.167 141.833,276.833 140.5,278.5C 140.167,278.5 139.833,278.5 139.5,278.5C 138.391,278.443 137.391,278.11 136.5,277.5C 136.167,274.5 137.5,273.167 140.5,273.5 Z"/></g>
<g><path style="opacity:0.996" fill="#bdaa7f" d="M 183.5,271.5 C 181.5,271.5 179.5,271.5 177.5,271.5C 177.34,273.199 177.506,274.866 178,276.5C 179.259,280.223 181.592,281.223 185,279.5C 185.495,277.527 185.662,275.527 185.5,273.5C 186.167,274.833 186.833,276.167 187.5,277.5C 187.5,277.833 187.5,278.167 187.5,278.5C 186.145,281.518 183.812,282.851 180.5,282.5C 177.248,279.457 175.748,275.791 176,271.5C 178.605,270.186 181.105,270.186 183.5,271.5 Z"/></g>
<g><path style="opacity:0.996" fill="#d16f2e" d="M 246.5,276.5 C 245.921,279.331 244.588,281.664 242.5,283.5C 239.525,284.655 236.858,286.322 234.5,288.5C 233.082,286.692 231.082,286.025 228.5,286.5C 233.847,282.156 239.847,278.823 246.5,276.5 Z"/></g>
<g><path style="opacity:0.96" fill="#434962" d="M 242.5,283.5 C 243.8,288.4 243.8,293.4 242.5,298.5C 239.968,299.596 237.635,300.929 235.5,302.5C 233.167,302.5 230.833,302.5 228.5,302.5C 226.558,296.362 228.558,291.696 234.5,288.5C 236.858,286.322 239.525,284.655 242.5,283.5 Z"/></g>
<g><path style="opacity:1" fill="#fbb03a" d="M 59.5,283.5 C 64.6928,286.757 70.3594,288.924 76.5,290C 89.144,291.803 101.811,291.969 114.5,290.5C 111.043,297.113 106.043,302.113 99.5,305.5C 97.0443,307.868 94.0443,308.868 90.5,308.5C 84.8414,309.2 79.1747,309.366 73.5,309C 70.5755,308.012 67.5755,307.346 64.5,307C 61.4671,304.792 58.1337,303.292 54.5,302.5C 51.5726,301.243 49.2393,299.243 47.5,296.5C 47.3284,295.508 47.6618,294.842 48.5,294.5C 48.8333,294.5 49.1667,294.5 49.5,294.5C 52.7001,295.788 56.0334,295.788 59.5,294.5C 59.9086,290.93 59.9086,287.264 59.5,283.5 Z"/></g>
<g><path style="opacity:1" fill="#687893" d="M 136.5,277.5 C 137.391,278.11 138.391,278.443 139.5,278.5C 138.207,280.296 136.707,281.963 135,283.5C 130.943,289.102 132.109,293.269 138.5,296C 144.882,296.689 151.215,296.355 157.5,295C 161.855,293.154 166.188,291.321 170.5,289.5C 161.517,300.994 149.851,305.494 135.5,303C 129.951,299.309 128.118,294.142 130,287.5C 132.022,283.997 134.189,280.663 136.5,277.5 Z"/></g>
<g><path style="opacity:1" fill="#eb7e1d" d="M 228.5,286.5 C 231.082,286.025 233.082,286.692 234.5,288.5C 228.558,291.696 226.558,296.362 228.5,302.5C 229.514,303.674 230.847,304.34 232.5,304.5C 227.979,305.99 224.312,304.657 221.5,300.5C 220.417,301.365 220.251,302.365 221,303.5C 222.579,305.041 224.413,306.208 226.5,307C 239.916,307.462 253.249,306.629 266.5,304.5C 251.227,309.183 235.561,310.517 219.5,308.5C 218.542,307.038 217.376,305.705 216,304.5C 215.333,303.167 215.333,301.833 216,300.5C 218.284,296.386 221.117,292.72 224.5,289.5C 225.262,287.738 226.596,286.738 228.5,286.5 Z"/></g>
<g><path style="opacity:0.996" fill="#f28439" d="M 51.5,278.5 C 54.1305,280.153 56.7972,281.819 59.5,283.5C 59.9086,287.264 59.9086,290.93 59.5,294.5C 56.0334,295.788 52.7001,295.788 49.5,294.5C 57.0001,295.834 59.8334,292.834 58,285.5C 53.9863,280.955 49.1529,279.788 43.5,282C 42.9781,282.561 42.6448,283.228 42.5,284C 43.9548,286.248 44.7882,288.748 45,291.5C 46.5185,292.163 47.6851,293.163 48.5,294.5C 47.6618,294.842 47.3284,295.508 47.5,296.5C 41.8116,291.8 38.1449,285.8 36.5,278.5C 40.2622,281.25 43.7622,280.917 47,277.5C 48.5328,277.773 50.0328,278.106 51.5,278.5 Z"/></g>
<g><path style="opacity:1" fill="#ec7b17" d="M 49.5,294.5 C 49.1667,294.5 48.8333,294.5 48.5,294.5C 47.6851,293.163 46.5185,292.163 45,291.5C 44.7882,288.748 43.9548,286.248 42.5,284C 42.6448,283.228 42.9781,282.561 43.5,282C 49.1529,279.788 53.9863,280.955 58,285.5C 59.8334,292.834 57.0001,295.834 49.5,294.5 Z"/></g>
<g><path style="opacity:1" fill="#e8dd71" d="M 199.5,292.5 C 202.484,292.787 203.817,294.454 203.5,297.5C 199.464,297.718 198.13,296.051 199.5,292.5 Z"/></g>
<g><path style="opacity:1" fill="#ed8221" d="M 332.5,267.5 C 333.809,268.624 334.475,270.124 334.5,272C 334.007,274.819 332.84,277.319 331,279.5C 324.956,285.439 318.123,290.273 310.5,294C 309.695,295.113 309.028,296.279 308.5,297.5C 304.687,299.407 300.687,300.74 296.5,301.5C 284.909,305.81 273.242,309.477 261.5,312.5C 257.19,313.08 252.857,313.414 248.5,313.5C 244.833,313.5 241.167,313.5 237.5,313.5C 269.305,310.064 298.638,299.564 325.5,282C 330.396,278.307 332.729,273.473 332.5,267.5 Z"/></g>
<g><path style="opacity:1" fill="#f7d959" d="M 224.5,289.5 C 221.117,292.72 218.284,296.386 216,300.5C 215.333,301.833 215.333,303.167 216,304.5C 217.376,305.705 218.542,307.038 219.5,308.5C 219.5,310.5 218.5,311.5 216.5,311.5C 214.833,310.833 213.167,310.167 211.5,309.5C 210.539,307.735 210.205,305.735 210.5,303.5C 213.5,297.167 218.167,292.5 224.5,289.5 Z"/></g>
<g><path style="opacity:0.996" fill="#cea97f" d="M 308.5,297.5 C 308.5,299.167 308.5,300.833 308.5,302.5C 307.977,305.878 306.644,308.878 304.5,311.5C 301.437,313.051 298.771,315.218 296.5,318C 284.517,325.528 272.184,326.361 259.5,320.5C 256.761,316.753 253.094,314.753 248.5,314.5C 248.5,314.167 248.5,313.833 248.5,313.5C 252.857,313.414 257.19,313.08 261.5,312.5C 272.35,313.445 282.683,311.278 292.5,306C 294.192,304.693 295.525,303.193 296.5,301.5C 300.687,300.74 304.687,299.407 308.5,297.5 Z"/></g>
<g><path style="opacity:0.367" fill="#c76732" d="M 321.5,297.5 C 325.35,297.701 326.35,299.534 324.5,303C 320.537,303.118 319.537,301.284 321.5,297.5 Z"/></g>
<g><path style="opacity:1" fill="#faad37" d="M 328.5,266.5 C 329.167,266.5 329.833,266.5 330.5,266.5C 331.167,266.833 331.833,267.167 332.5,267.5C 332.729,273.473 330.396,278.307 325.5,282C 298.638,299.564 269.305,310.064 237.5,313.5C 232.156,313.666 226.823,313.499 221.5,313C 219.618,312.802 217.952,312.302 216.5,311.5C 218.5,311.5 219.5,310.5 219.5,308.5C 235.561,310.517 251.227,309.183 266.5,304.5C 278.348,302.718 289.681,299.218 300.5,294C 308.869,290.104 316.202,284.937 322.5,278.5C 323.251,279.573 324.251,279.74 325.5,279C 330.541,275.609 331.541,271.443 328.5,266.5 Z"/></g>
<g><path style="opacity:0.264" fill="#c76833" d="M 39.5,300.5 C 42.9563,301.536 43.2896,303.203 40.5,305.5C 38.2957,304.218 37.9624,302.551 39.5,300.5 Z"/></g>
<g><path style="opacity:0.998" fill="#f7a13d" d="M 315.5,277.5 C 314.474,280.372 312.808,282.872 310.5,285C 297.09,294.518 282.424,301.018 266.5,304.5C 253.249,306.629 239.916,307.462 226.5,307C 224.413,306.208 222.579,305.041 221,303.5C 220.251,302.365 220.417,301.365 221.5,300.5C 224.312,304.657 227.979,305.99 232.5,304.5C 254.872,305.428 275.872,300.762 295.5,290.5C 299.423,289.205 303.09,287.372 306.5,285C 308.063,284.241 309.063,283.074 309.5,281.5C 310.167,281.5 310.5,281.167 310.5,280.5C 312.411,279.925 314.078,278.925 315.5,277.5 Z"/></g>
<g><path style="opacity:1" fill="#f6d098" d="M 296.5,301.5 C 295.525,303.193 294.192,304.693 292.5,306C 282.683,311.278 272.35,313.445 261.5,312.5C 273.242,309.477 284.909,305.81 296.5,301.5 Z"/></g>
<g><path style="opacity:0.456" fill="#e4d9c9" d="M 34.5,251.5 C 35.1667,251.5 35.5,251.833 35.5,252.5C 34.8413,255.455 34.5079,258.455 34.5,261.5C 34.2087,267.303 34.8754,272.969 36.5,278.5C 38.1449,285.8 41.8116,291.8 47.5,296.5C 49.2393,299.243 51.5726,301.243 54.5,302.5C 58.6108,306.556 63.6108,309.056 69.5,310C 75.1667,310.667 80.8333,310.667 86.5,310C 88.0581,309.79 89.3915,309.29 90.5,308.5C 94.0443,308.868 97.0443,307.868 99.5,305.5C 102.406,305.043 105.072,304.043 107.5,302.5C 107.5,303.167 107.5,303.833 107.5,304.5C 99.4704,310.747 90.3037,313.413 80,312.5C 58.732,312.566 43.732,302.9 35,283.5C 30.7191,272.846 30.5524,262.18 34.5,251.5 Z"/></g>
<g><path style="opacity:0.996" fill="#e89853" d="M 54.5,302.5 C 58.1337,303.292 61.4671,304.792 64.5,307C 67.5755,307.346 70.5755,308.012 73.5,309C 79.1747,309.366 84.8414,309.2 90.5,308.5C 89.3915,309.29 88.0581,309.79 86.5,310C 80.8333,310.667 75.1667,310.667 69.5,310C 63.6108,309.056 58.6108,306.556 54.5,302.5 Z"/></g>
<g><path style="opacity:0.996" fill="#d1773e" d="M 211.5,309.5 C 213.167,310.167 214.833,310.833 216.5,311.5C 217.952,312.302 219.618,312.802 221.5,313C 226.823,313.499 232.156,313.666 237.5,313.5C 241.167,313.5 244.833,313.5 248.5,313.5C 248.5,313.833 248.5,314.167 248.5,314.5C 238.828,314.666 229.161,314.5 219.5,314C 216.032,313.77 213.366,312.27 211.5,309.5 Z"/></g>
<g><path style="opacity:0.657" fill="#e6dbca" d="M 210.5,303.5 C 210.205,305.735 210.539,307.735 211.5,309.5C 213.366,312.27 216.032,313.77 219.5,314C 229.161,314.5 238.828,314.666 248.5,314.5C 253.094,314.753 256.761,316.753 259.5,320.5C 256.86,320.046 254.527,318.879 252.5,317C 245.675,316.736 239.008,316.903 232.5,317.5C 227.17,316.97 221.836,316.47 216.5,316C 211.608,315.091 208.941,312.258 208.5,307.5C 209.167,306.167 209.833,304.833 210.5,303.5 Z"/></g>
<g><path style="opacity:0.284" fill="#859eb9" d="M 157.5,316.5 C 158.833,316.5 160.167,316.5 161.5,316.5C 161.778,318.346 161.111,319.68 159.5,320.5C 157.889,319.68 157.222,318.346 157.5,316.5 Z"/></g>
<g><path style="opacity:0.644" fill="#8aa7c3" d="M 232.5,318.5 C 235.833,317.833 237.833,319.167 238.5,322.5C 236.643,325.506 234.143,326.172 231,324.5C 230.252,322.16 230.752,320.16 232.5,318.5 Z"/></g>
<g><path style="opacity:0.196" fill="#e6ded1" d="M 304.5,311.5 C 303.457,314.056 301.79,316.223 299.5,318C 290.28,325.059 279.947,327.392 268.5,325C 264.965,324.337 261.965,322.837 259.5,320.5C 272.184,326.361 284.517,325.528 296.5,318C 298.771,315.218 301.437,313.051 304.5,311.5 Z"/></g>
</svg>
